<svg xmlns="http://www.w3.org/2000/svg" viewBox="0 0 439.875 439.875"><defs/><path d="M401.625 0H38.25C17.212 0 0 17.212 0 38.25v363.375c0 21.037 17.212 38.25 38.25 38.25h286.874L439.875 306V38.25c0-21.038-17.213-38.25-38.25-38.25zm-76.5 411.188v-86.062c0-11.475 9.562-19.125 19.125-19.125h70.763l-89.888 105.187zm95.625-124.313h-76.5c-21.037 0-38.25 17.213-38.25 38.25v95.625H38.25c-11.475 0-19.125-7.65-19.125-19.125V114.75H420.75v172.125zm0-191.25H19.125V38.25c0-11.475 7.65-19.125 19.125-19.125h363.375c11.475 0 19.125 7.65 19.125 19.125v57.375z"/><path d="M57.375 229.5H382.5v19.125H57.375zM57.375 172.125H382.5v19.125H57.375zM57.375 286.875H267.75V306H57.375zM57.375 344.25H267.75v19.125H57.375z"/></svg>