<svg xmlns="http://www.w3.org/2000/svg" viewBox="0 0 469.3 469.3"><defs/><path fill="#303c42" d="M469.3 128V42.7A42.7 42.7 0 00426.7 0h-384A42.7 42.7 0 000 42.7V128c0 12.8 5.8 24.2 14.7 32A42.4 42.4 0 000 192v85.3A42.7 42.7 0 0042.7 320H224v85.3h-10.7a10.7 10.7 0 00-10.6 10.7v10.7H53.3a10.7 10.7 0 100 21.3h149.4v10.7a10.7 10.7 0 0010.6 10.6H256a10.7 10.7 0 0010.7-10.6V448H416a10.7 10.7 0 100-21.3H266.7V416a10.7 10.7 0 00-10.7-10.7h-10.7V320h181.4a42.7 42.7 0 0042.6-42.7V192c0-12.8-5.8-24.2-14.7-32 9-7.8 14.7-19.2 14.7-32z"/><path fill="#e65100" d="M224 426.7h21.3V448H224z"/><path fill="#e6e6e6" d="M448 192v85.3c0 11.8-9.6 21.4-21.3 21.4h-384a21.4 21.4 0 01-21.4-21.4V192c0-11.8 9.6-21.3 21.4-21.3h384c11.7 0 21.3 9.5 21.3 21.3zM42.7 149.3A21.4 21.4 0 0121.3 128V42.7c0-11.8 9.6-21.4 21.4-21.4h384c11.7 0 21.3 9.6 21.3 21.4V128c0 11.8-9.6 21.3-21.3 21.3h-384z"/><path fill="#fff" d="M42.7 277.3V192c0-11.8 8.6-21.3 19.2-21.3H42.7A21.4 21.4 0 0021.3 192v85.3c0 11.8 9.6 21.4 21.4 21.4h19.2c-10.6 0-19.2-9.6-19.2-21.4z" opacity=".2"/><path d="M426.7 170.7h-19.2c10.6 0 19.2 9.5 19.2 21.3v85.3c0 11.8-8.6 21.4-19.2 21.4h19.2c11.7 0 21.3-9.6 21.3-21.4V192c0-11.8-9.6-21.3-21.3-21.3z" opacity=".1"/><path fill="#fff" d="M42.7 128V42.7c0-11.8 8.6-21.4 19.2-21.4H42.7a21.4 21.4 0 00-21.4 21.4V128c0 11.8 9.6 21.3 21.4 21.3h19.2c-10.6 0-19.2-9.5-19.2-21.3z" opacity=".2"/><path d="M426.7 21.3h-19.2c10.6 0 19.2 9.6 19.2 21.4V128c0 11.8-8.6 21.3-19.2 21.3h19.2c11.7 0 21.3-9.5 21.3-21.3V42.7c0-11.8-9.6-21.4-21.3-21.4z" opacity=".1"/><g fill="#303c42"><path d="M74.7 42.7A10.7 10.7 0 0064 53.3v64A10.7 10.7 0 0074.7 128a10.7 10.7 0 0010.6-10.7v-64a10.7 10.7 0 00-10.6-10.6zm42.6 0a10.7 10.7 0 00-10.6 10.6v64a10.7 10.7 0 1021.3 0v-64a10.7 10.7 0 00-10.7-10.6zm42.7 0a10.7 10.7 0 00-10.7 10.6v64A10.7 10.7 0 00160 128a10.7 10.7 0 0010.7-10.7v-64A10.7 10.7 0 00160 42.7z"/><circle cx="384" cy="85.3" r="21.3"/><circle cx="320" cy="85.3" r="21.3"/><path d="M74.7 277.3a10.7 10.7 0 0010.6-10.6v-64A10.7 10.7 0 0074.7 192 10.7 10.7 0 0064 202.7v64a10.7 10.7 0 0010.7 10.6zm42.6 0a10.7 10.7 0 0010.7-10.6v-64a10.7 10.7 0 10-21.3 0v64a10.7 10.7 0 0010.6 10.6zm42.7 0a10.7 10.7 0 0010.7-10.6v-64A10.7 10.7 0 00160 192a10.7 10.7 0 00-10.7 10.7v64a10.7 10.7 0 0010.7 10.6z"/><circle cx="384" cy="234.7" r="21.3"/><circle cx="320" cy="234.7" r="21.3"/></g><linearGradient id="a" x1="-68.4" x2="-44.7" y1="619.6" y2="608.6" gradientTransform="matrix(21.3333 0 0 -21.3333 1430.1 13315.2)" gradientUnits="userSpaceOnUse"><stop offset="0" stop-color="#fff" stop-opacity=".2"/><stop offset="1" stop-color="#fff" stop-opacity="0"/></linearGradient><path fill="url(#a)" d="M469.3 128V42.7A42.7 42.7 0 00426.7 0h-384A42.7 42.7 0 000 42.7V128c0 12.8 5.8 24.2 14.7 32A42.4 42.4 0 000 192v85.3A42.7 42.7 0 0042.7 320H224v85.3h-10.7a10.7 10.7 0 00-10.6 10.7v10.7H53.3a10.7 10.7 0 100 21.3h149.4v10.7a10.7 10.7 0 0010.6 10.6H256a10.7 10.7 0 0010.7-10.6V448H416a10.7 10.7 0 100-21.3H266.7V416a10.7 10.7 0 00-10.7-10.7h-10.7V320h181.4a42.7 42.7 0 0042.6-42.7V192c0-12.8-5.8-24.2-14.7-32 9-7.8 14.7-19.2 14.7-32z"/></svg>