<svg xmlns="http://www.w3.org/2000/svg" viewBox="0 0 64 64"><path d="M7 8c-1.654 0-3 1.346-3 3v42c0 1.654 1.346 3 3 3h50c1.654 0 3-1.346 3-3V11c0-1.654-1.346-3-3-3H7zm0 2h50a1 1 0 011 1v42a1 1 0 01-1 1H7a1 1 0 01-1-1V20h41a1 1 0 100-2H6v-7a1 1 0 011-1zm3 2a1 1 0 00-1 1v2a1 1 0 102 0v-2a1 1 0 00-1-1zm5 0a1 1 0 00-1 1v2a1 1 0 102 0v-2a1 1 0 00-1-1zm5 0a1 1 0 00-1 1v2a1 1 0 102 0v-2a1 1 0 00-1-1zm5 0a1 1 0 00-1 1v2a1 1 0 102 0v-2a1 1 0 00-1-1zm5 0a1 1 0 00-1 1v2a1 1 0 102 0v-2a1 1 0 00-1-1zm5 0a1 1 0 00-1 1v2a1 1 0 102 0v-2a1 1 0 00-1-1zm5 0a1 1 0 00-1 1v2a1 1 0 102 0v-2a1 1 0 00-1-1zm5 0a1 1 0 00-1 1v2a1 1 0 102 0v-2a1 1 0 00-1-1zm5 0a1 1 0 00-1 1v2a1 1 0 102 0v-2a1 1 0 00-1-1zm5 0a1 1 0 00-1 1v2a1 1 0 102 0v-2a1 1 0 00-1-1zm-4 6a1 1 0 100 2h4a1 1 0 100-2h-4zM16 28c-2.206 0-4 1.794-4 4v2c0 2.206 1.794 4 4 4h2c1.103 0 2 .897 2 2v2c0 1.103-.897 2-2 2h-2c-1.103 0-2-.897-2-2v-1a1 1 0 10-2 0v1c0 2.206 1.794 4 4 4h2c2.206 0 4-1.794 4-4v-2c0-2.206-1.794-4-4-4h-2c-1.103 0-2-.897-2-2v-2c0-1.103.897-2 2-2h2c1.103 0 2 .897 2 2v1a1 1 0 102 0v-1c0-2.206-1.794-4-4-4h-2zm14 0c-2.206 0-4 1.794-4 4v2c0 2.206 1.794 4 4 4h2c1.103 0 2 .897 2 2v2c0 1.103-.897 2-2 2h-2c-1.103 0-2-.897-2-2v-1a1 1 0 10-2 0v1c0 2.206 1.794 4 4 4h2c2.206 0 4-1.794 4-4v-2c0-2.206-1.794-4-4-4h-2c-1.103 0-2-.897-2-2v-2c0-1.103.897-2 2-2h2c1.103 0 2 .897 2 2v1a1 1 0 102 0v-1c0-2.206-1.794-4-4-4h-2zm11 0a1 1 0 00-1 1v16a1 1 0 102 0v-7h6v7a1 1 0 102 0V29a1 1 0 10-2 0v7h-6v-7a1 1 0 00-1-1z"/></svg>