<svg xmlns="http://www.w3.org/2000/svg" xmlns:xlink="http://www.w3.org/1999/xlink" width="840" height="726.849" viewBox="0 0 840 726.849"><defs><linearGradient id="a" x1=".5" y1="1" x2=".5" gradientUnits="objectBoundingBox"><stop offset="0" stop-color="gray" stop-opacity=".251"/><stop offset=".54" stop-color="gray" stop-opacity=".122"/><stop offset="1" stop-color="gray" stop-opacity=".102"/></linearGradient><linearGradient id="b" x1="-.512" y1="7.758" x2="-.512" y2="6.717" xlink:href="#a"/><linearGradient id="c" x1="-1.386" y1="7.85" x2="-1.386" y2="6.809" xlink:href="#a"/></defs><g transform="translate(0 -.001)"><g data-name="Group 1"><ellipse data-name="Ellipse 1" cx="146.46" cy="113.46" rx="146.46" ry="113.46" transform="translate(285.54 18.85)" fill="url(#a)" opacity=".8"/></g><path data-name="Ellipse 2" d="M432 21.37c79.09 0 143.21 49.67 143.21 110.94S511.09 243.25 432 243.25s-143.21-49.67-143.21-110.94S352.907 21.37 432 21.37z" fill="#403a4e"/><path data-name="Path 1" d="M311.94 144.64c0-61.27 64.11-110.94 143.2-110.94a175.54 175.54 0 0171.36 14.73c-25.17-17-58.1-27.33-94.14-27.33-79.09 0-143.21 49.67-143.21 110.94 0 41.14 28.91 77.05 71.86 96.21-30.07-20.34-49.07-50.25-49.07-83.61z" fill="#2f2e41"/><path data-name="Path 2" d="M432 176.9l158.76 274.98 158.76 274.97H114.48l158.76-274.97z" fill="#ededf4" opacity=".2"/><g data-name="Group 2"><path data-name="Path 3" d="M649.67 652.79L662 616.2a62.66 62.66 0 00-23.2-70.89l.1-.06a61.48 61.48 0 00-15.79-8l-.17-.06-.19-.06a61.552 61.552 0 00-16.9-3.18 59.274 59.274 0 00-6.11 0 62.316 62.316 0 00-10.49 1.45c-1 .22-2 .47-2.91.74s-1.93.56-2.88.87c-1.9.63-3.77 1.34-5.6 2.15-.92.4-1.83.82-2.72 1.27a61.463 61.463 0 00-7.75 4.56c-.83.57-1.64 1.16-2.44 1.76a62 62 0 00-21.24 29.6L524.33 634a61.861 61.861 0 00-2.68 28.12c.2 1.45.45 2.89.74 4.32s.65 2.84 1 4.24c.27.93.55 1.86.86 2.78.46 1.37 1 2.74 1.51 4.08.37.89.76 1.78 1.17 2.66.81 1.75 1.71 3.46 2.68 5.13a54.1 54.1 0 003.16 4.88c.84 1.18 1.73 2.34 2.65 3.46a52.245 52.245 0 003.92 4.33 61.81 61.81 0 0021 13.89l.34.14a21.647 21.647 0 011.4-2.17c3-4.11 8.22-7 13.19-5.92.36.08.72.19 1.08.3 2.52.89 5 2.48 7.43 3.26a6.66 6.66 0 005.61-.07c4.86-2.59 3.06-10.76 7.23-14.34a6.5 6.5 0 01.61-.46 1.9 1.9 0 01-.16-.23c3.22-2 7.68-.67 11.39.62 4 1.41 9.22 2.36 12-.91 1.88-2.24 1.74-5.65 3.53-8 2.08-2.7 6-3 9.39-2.52l.17.05c6.5 2.68 13.6-1.77 13.1-8.78a54.764 54.764 0 013.02-20.07z" transform="translate(-180 -86.57)" fill="url(#b)" opacity=".3"/></g><path data-name="Path 4" d="M383.21 620.21c2.92-4 7.93-6.8 12.73-5.71s9.35 5.66 13.62 3.37c5.84-3.12 1.7-14.59 11.18-15.44a12.441 12.441 0 015.77 1c4 1.63 10.26 3.47 13.34-.2 1.81-2.16 1.68-5.45 3.41-7.69 2-2.6 5.81-2.93 9.06-2.43l.16.05c6.27 2.59 13.13-1.71 12.64-8.47-.63-9 2.23-17.48 2.85-19.32l11.88-35.31A60.38 60.38 0 00442 453.77a60.38 60.38 0 00-76.27 37.86L347 547.16a60.39 60.39 0 0034.82 75.15 21.458 21.458 0 011.39-2.1z" fill="#fff"/><circle data-name="Ellipse 3" cx="6.51" cy="6.51" r="6.51" transform="translate(398.84 479.57)" opacity=".2"/><circle data-name="Ellipse 4" cx="6.51" cy="6.51" r="6.51" transform="translate(435.86 492.02)" opacity=".2"/><ellipse data-name="Ellipse 5" cx="9.76" cy="6.51" rx="9.76" ry="6.51" transform="rotate(-71.4 567.832 -20.682)" fill="#e0e0e0"/><circle data-name="Ellipse 6" cx="9.76" cy="9.76" r="9.76" transform="translate(542.77 477.76)" fill="#fff"/><circle data-name="Ellipse 7" cx="4.88" cy="4.88" r="4.88" transform="translate(578.57 467.29)" fill="#fff"/><g data-name="Group 4" opacity=".5"><g data-name="Group 3"><path data-name="Path 5" d="M662.67 259.79L675 223.2a62.66 62.66 0 00-23.2-70.89l.1-.06a61.477 61.477 0 00-15.79-8l-.17-.06-.19-.06a61.55 61.55 0 00-16.9-3.18 59.272 59.272 0 00-6.11 0 62.317 62.317 0 00-10.49 1.45c-1 .22-2 .47-2.91.74s-1.93.56-2.88.87c-1.9.63-3.77 1.34-5.6 2.15-.92.4-1.83.82-2.72 1.27a61.469 61.469 0 00-7.75 4.56c-.83.57-1.64 1.16-2.44 1.76a62 62 0 00-21.24 29.6L537.33 241a61.858 61.858 0 00-2.68 28.12c.2 1.45.45 2.89.74 4.32s.65 2.84 1 4.24c.27.93.55 1.86.86 2.78.46 1.37 1 2.74 1.51 4.08.37.89.76 1.78 1.17 2.66.81 1.75 1.71 3.46 2.68 5.13a54.082 54.082 0 003.16 4.88 61.73 61.73 0 006.57 7.79 61.81 61.81 0 0021 13.89l.34.14a21.648 21.648 0 011.4-2.17c3-4.11 8.22-7 13.19-5.92.36.08.72.19 1.08.3 2.52.89 5 2.48 7.43 3.26a6.66 6.66 0 005.61-.07c4.86-2.59 3.06-10.76 7.23-14.34a6.509 6.509 0 01.61-.46 1.89 1.89 0 01-.16-.23c3.22-2 7.68-.67 11.39.62 4 1.41 9.22 2.36 12-.91 1.88-2.24 1.74-5.65 3.53-8 2.08-2.7 6-3 9.39-2.52h.17c6.5 2.68 13.6-1.77 13.1-8.78-.59-9.3 2.35-18.11 3.02-20.02z" transform="translate(-180 -86.57)" fill="url(#c)" opacity=".3"/></g><path data-name="Path 6" d="M396.21 227.21c2.92-4 7.93-6.8 12.73-5.71s9.35 5.66 13.62 3.37c5.84-3.12 1.7-14.59 11.18-15.44a12.44 12.44 0 015.77 1c4 1.63 10.26 3.47 13.34-.2 1.81-2.16 1.68-5.45 3.41-7.69 2-2.6 5.81-2.93 9.06-2.43l.16.05c6.27 2.59 13.13-1.71 12.64-8.47-.63-9 2.23-17.48 2.85-19.32l11.88-35.31A60.38 60.38 0 00455 60.77a60.38 60.38 0 00-76.27 37.86L360 154.16a60.39 60.39 0 0034.82 75.15 21.457 21.457 0 011.39-2.1z" fill="#fff"/><circle data-name="Ellipse 8" cx="6.51" cy="6.51" r="6.51" transform="translate(411.84 86.57)" opacity=".2"/><circle data-name="Ellipse 9" cx="6.51" cy="6.51" r="6.51" transform="translate(448.86 99.02)" opacity=".2"/></g><path data-name="Path 7" d="M569.52 99.43a87.512 87.512 0 012.79 22c0 61.27-64.11 110.94-143.2 110.94-64.73-.04-119.42-33.3-137.11-78.94 13.14 50.77 71 89 140.41 89 79.09 0 143.21-49.67 143.21-110.94a88.157 88.157 0 00-6.1-32.06z" opacity=".1"/><g data-name="Group 5"><ellipse data-name="Ellipse 10" cx="296.18" cy="77.41" rx="296.18" ry="77.41" transform="translate(135.82 103.27)" fill="url(#a)" opacity=".8"/></g><path data-name="Path 8" d="M432 105.83c-158.18 0-286.42 33.51-286.42 74.86h572.84c0-41.35-128.24-74.86-286.42-74.86z" fill="#fcfcfc"/><path data-name="Path 9" d="M432 255.54c158.18 0 286.42-33.51 286.42-74.85H145.58c0 41.34 128.24 74.85 286.42 74.85z" fill="#fff"/><path data-name="Path 10" d="M432 255.54c158.18 0 286.42-33.51 286.42-74.85H145.58c0 41.34 128.24 74.85 286.42 74.85z" fill="#fcfcfc"/><rect data-name="Rectangle 1" width="273.4" height="39.06" rx="17.22" transform="translate(295.3 161.15)" opacity=".05"/><path data-name="Path 11" d="M133.89 57.81a3.68 3.68 0 01-2.05-4.44 1.86 1.86 0 00.08-.41 1.84 1.84 0 00-3.31-1.22 1.82 1.82 0 00-.2.36 3.67 3.67 0 01-4.44 2.05 2 2 0 00-.41-.08 1.84 1.84 0 00-1.22 3.31 1.618 1.618 0 00.36.21 3.68 3.68 0 012.05 4.44 1.89 1.89 0 00-.08.4 1.84 1.84 0 003.31 1.23 1.65 1.65 0 00.2-.37 3.67 3.67 0 014.44-2 2 2 0 00.41.08 1.84 1.84 0 001.22-3.31 1.621 1.621 0 00-.36-.25z" fill="#fff" opacity=".5"/><path data-name="Path 12" d="M642.89 363.81a3.68 3.68 0 01-2-4.44 1.851 1.851 0 00.08-.41 1.84 1.84 0 00-3.31-1.22 1.821 1.821 0 00-.2.36 3.67 3.67 0 01-4.44 2.05 2 2 0 00-.41-.08 1.84 1.84 0 00-1.22 3.31 1.623 1.623 0 00.36.21 3.68 3.68 0 012 4.44 1.893 1.893 0 00-.08.4 1.84 1.84 0 003.31 1.23 1.647 1.647 0 00.2-.37 3.67 3.67 0 014.44-2 2 2 0 00.41.08 1.84 1.84 0 001.22-3.31 1.618 1.618 0 00-.36-.25z" fill="#fff" opacity=".5"/><path data-name="Path 13" d="M80.89 505.81a3.68 3.68 0 01-2.05-4.44 1.86 1.86 0 00.08-.41 1.84 1.84 0 00-3.31-1.22 1.819 1.819 0 00-.2.36 3.67 3.67 0 01-4.44 2.05 2 2 0 00-.41-.08 1.84 1.84 0 00-1.22 3.31 1.619 1.619 0 00.36.21 3.68 3.68 0 012.05 4.44 1.889 1.889 0 00-.08.4 1.84 1.84 0 003.31 1.23 1.648 1.648 0 00.2-.37 3.67 3.67 0 014.44-2 2 2 0 00.41.08 1.84 1.84 0 001.22-3.31 1.622 1.622 0 00-.36-.25z" fill="#fff" opacity=".5"/><path data-name="Path 14" d="M25.89 174.81a3.68 3.68 0 01-2-4.44 1.859 1.859 0 00.08-.41 1.84 1.84 0 00-3.31-1.22 1.82 1.82 0 00-.2.36 3.67 3.67 0 01-4.44 2.05 2 2 0 00-.41-.08 1.84 1.84 0 00-1.22 3.31 1.62 1.62 0 00.36.21 3.68 3.68 0 012.05 4.44 1.889 1.889 0 00-.08.4 1.84 1.84 0 003.31 1.23 1.65 1.65 0 00.2-.37 3.67 3.67 0 014.44-2 2 2 0 00.41.08 1.84 1.84 0 001.22-3.31 1.62 1.62 0 00-.41-.25z" fill="#fff" opacity=".5"/><path data-name="Path 15" d="M632.89 6.81a3.68 3.68 0 01-2-4.44 1.858 1.858 0 00.08-.41 1.84 1.84 0 00-3.31-1.22 1.82 1.82 0 00-.2.36 3.67 3.67 0 01-4.44 2 2 2 0 00-.41-.08 1.84 1.84 0 00-1.27 3.41 1.618 1.618 0 00.36.21 3.68 3.68 0 012 4.44 1.882 1.882 0 00-.08.4 1.84 1.84 0 003.38 1.18 1.65 1.65 0 00.2-.37 3.67 3.67 0 014.44-2 2 2 0 00.41.08 1.84 1.84 0 001.22-3.31 1.621 1.621 0 00-.38-.25z" fill="#fff" opacity=".5"/><g data-name="Group 6" opacity=".5" fill="#fff"><path data-name="Rectangle 2" d="M110 257.85h3v17h-3z"/><path data-name="Rectangle 3" d="M120 264.85v3h-17v-3z"/></g><g data-name="Group 7" opacity=".5" fill="#fff"><path data-name="Rectangle 4" d="M830 177.85h3v17h-3z"/><path data-name="Rectangle 5" d="M840 184.85v3h-17v-3z"/></g><g data-name="Group 8" opacity=".5" fill="#fff"><path data-name="Rectangle 6" d="M730 456.85h3v17h-3z"/><path data-name="Rectangle 7" d="M740 463.85v3h-17v-3z"/></g><circle data-name="Ellipse 11" cx="6" cy="6" r="6" transform="translate(717 75.85)" fill="#fff" opacity=".5"/><circle data-name="Ellipse 12" cx="6" cy="6" r="6" transform="translate(0 6.85)" fill="#fff" opacity=".5"/><circle data-name="Ellipse 13" cx="6" cy="6" r="6" transform="translate(180 351.85)" fill="#fff" opacity=".5"/><ellipse data-name="Ellipse 14" cx="34" cy="7" rx="34" ry="7" transform="translate(200 147.43)" opacity=".05"/><ellipse data-name="Ellipse 15" cx="34" cy="7" rx="34" ry="7" transform="translate(200 200.43)" opacity=".05"/><ellipse data-name="Ellipse 16" cx="34" cy="7" rx="34" ry="7" transform="translate(587 147.43)" opacity=".05"/><ellipse data-name="Ellipse 17" cx="34" cy="7" rx="34" ry="7" transform="translate(587 200.43)" opacity=".05"/><ellipse data-name="Ellipse 18" cx="34" cy="7" rx="34" ry="7" transform="translate(398 117.43)" opacity=".05"/><ellipse data-name="Ellipse 19" cx="34" cy="7" rx="34" ry="7" transform="translate(423 44.43)" opacity=".05"/><ellipse data-name="Ellipse 20" cx="34" cy="7" rx="34" ry="7" transform="translate(358 74.43)" opacity=".05"/><ellipse data-name="Ellipse 21" cx="34" cy="7" rx="34" ry="7" transform="translate(483 87.43)" opacity=".05"/><ellipse data-name="Ellipse 22" cx="34" cy="7" rx="34" ry="7" transform="translate(398 221.43)" opacity=".05"/></g></svg>