<svg xmlns="http://www.w3.org/2000/svg"><defs><symbol id="activity" viewBox="0 0 24 24"><path d="M22 12h-4l-3 9L9 3l-3 9H2"/></symbol><symbol id="airplay" viewBox="0 0 24 24"><path d="M5 17H4a2 2 0 01-2-2V5a2 2 0 012-2h16a2 2 0 012 2v10a2 2 0 01-2 2h-1"/><path d="M12 15l5 6H7l5-6z"/></symbol><symbol id="alert-circle" viewBox="0 0 24 24"><circle cx="12" cy="12" r="10"/><path d="M12 8v4"/><path d="M12 16h.01"/></symbol><symbol id="alert-octagon" viewBox="0 0 24 24"><path d="M7.86 2h8.28L22 7.86v8.28L16.14 22H7.86L2 16.14V7.86L7.86 2z"/><path d="M12 8v4"/><path d="M12 16h.01"/></symbol><symbol id="alert-triangle" viewBox="0 0 24 24"><path d="M10.29 3.86L1.82 18a2 2 0 001.71 3h16.94a2 2 0 001.71-3L13.71 3.86a2 2 0 00-3.42 0z"/><path d="M12 9v4"/><path d="M12 17h.01"/></symbol><symbol id="align-center" viewBox="0 0 24 24"><path d="M18 10H6"/><path d="M21 6H3"/><path d="M21 14H3"/><path d="M18 18H6"/></symbol><symbol id="align-justify" viewBox="0 0 24 24"><path d="M21 10H3"/><path d="M21 6H3"/><path d="M21 14H3"/><path d="M21 18H3"/></symbol><symbol id="align-left" viewBox="0 0 24 24"><path d="M17 10H3"/><path d="M21 6H3"/><path d="M21 14H3"/><path d="M17 18H3"/></symbol><symbol id="align-right" viewBox="0 0 24 24"><path d="M21 10H7"/><path d="M21 6H3"/><path d="M21 14H3"/><path d="M21 18H7"/></symbol><symbol id="anchor" viewBox="0 0 24 24"><circle cx="12" cy="5" r="3"/><path d="M12 22V8"/><path d="M5 12H2a10 10 0 0020 0h-3"/></symbol><symbol id="aperture" viewBox="0 0 24 24"><circle cx="12" cy="12" r="10"/><path d="M14.31 8l5.74 9.94"/><path d="M9.69 8h11.48"/><path d="M7.38 12l5.74-9.94"/><path d="M9.69 16L3.95 6.06"/><path d="M14.31 16H2.83"/><path d="M16.62 12l-5.74 9.94"/></symbol><symbol id="archive" viewBox="0 0 24 24"><path d="M21 8v13H3V8"/><path d="M1 3h22v5H1z"/><path d="M10 12h4"/></symbol><symbol id="arrow-down-circle" viewBox="0 0 24 24"><circle cx="12" cy="12" r="10"/><path d="M8 12l4 4 4-4"/><path d="M12 8v8"/></symbol><symbol id="arrow-down-left" viewBox="0 0 24 24"><path d="M17 7L7 17"/><path d="M17 17H7V7"/></symbol><symbol id="arrow-down-right" viewBox="0 0 24 24"><path d="M7 7l10 10"/><path d="M17 7v10H7"/></symbol><symbol id="arrow-down" viewBox="0 0 24 24"><path d="M12 5v14"/><path d="M19 12l-7 7-7-7"/></symbol><symbol id="arrow-left-circle" viewBox="0 0 24 24"><circle cx="12" cy="12" r="10"/><path d="M12 8l-4 4 4 4"/><path d="M16 12H8"/></symbol><symbol id="arrow-left" viewBox="0 0 24 24"><path d="M19 12H5"/><path d="M12 19l-7-7 7-7"/></symbol><symbol id="arrow-right-circle" viewBox="0 0 24 24"><circle cx="12" cy="12" r="10"/><path d="M12 16l4-4-4-4"/><path d="M8 12h8"/></symbol><symbol id="arrow-right" viewBox="0 0 24 24"><path d="M5 12h14"/><path d="M12 5l7 7-7 7"/></symbol><symbol id="arrow-up-circle" viewBox="0 0 24 24"><circle cx="12" cy="12" r="10"/><path d="M16 12l-4-4-4 4"/><path d="M12 16V8"/></symbol><symbol id="arrow-up-left" viewBox="0 0 24 24"><path d="M17 17L7 7"/><path d="M7 17V7h10"/></symbol><symbol id="arrow-up-right" viewBox="0 0 24 24"><path d="M7 17L17 7"/><path d="M7 7h10v10"/></symbol><symbol id="arrow-up" viewBox="0 0 24 24"><path d="M12 19V5"/><path d="M5 12l7-7 7 7"/></symbol><symbol id="at-sign" viewBox="0 0 24 24"><circle cx="12" cy="12" r="4"/><path d="M16 8v5a3 3 0 006 0v-1a10 10 0 10-3.92 7.94"/></symbol><symbol id="award" viewBox="0 0 24 24"><circle cx="12" cy="8" r="7"/><path d="M8.21 13.89L7 23l5-3 5 3-1.21-9.12"/></symbol><symbol id="bar-chart-2" viewBox="0 0 24 24"><path d="M18 20V10"/><path d="M12 20V4"/><path d="M6 20v-6"/></symbol><symbol id="bar-chart" viewBox="0 0 24 24"><path d="M12 20V10"/><path d="M18 20V4"/><path d="M6 20v-4"/></symbol><symbol id="battery-charging" viewBox="0 0 24 24"><path d="M5 18H3a2 2 0 01-2-2V8a2 2 0 012-2h3.19M15 6h2a2 2 0 012 2v8a2 2 0 01-2 2h-3.19"/><path d="M23 13v-2"/><path d="M11 6l-4 6h6l-4 6"/></symbol><symbol id="battery" viewBox="0 0 24 24"><rect x="1" y="6" width="18" height="12" rx="2" ry="2"/><path d="M23 13v-2"/></symbol><symbol id="bell-off" viewBox="0 0 24 24"><path d="M13.73 21a2 2 0 01-3.46 0"/><path d="M18.63 13A17.89 17.89 0 0118 8"/><path d="M6.26 6.26A5.86 5.86 0 006 8c0 7-3 9-3 9h14"/><path d="M18 8a6 6 0 00-9.33-5"/><path d="M1 1l22 22"/></symbol><symbol id="bell" viewBox="0 0 24 24"><path d="M18 8A6 6 0 006 8c0 7-3 9-3 9h18s-3-2-3-9"/><path d="M13.73 21a2 2 0 01-3.46 0"/></symbol><symbol id="bluetooth" viewBox="0 0 24 24"><path d="M6.5 6.5l11 11L12 23V1l5.5 5.5-11 11"/></symbol><symbol id="bold" viewBox="0 0 24 24"><path d="M6 4h8a4 4 0 014 4 4 4 0 01-4 4H6z"/><path d="M6 12h9a4 4 0 014 4 4 4 0 01-4 4H6z"/></symbol><symbol id="book-open" viewBox="0 0 24 24"><path d="M2 3h6a4 4 0 014 4v14a3 3 0 00-3-3H2z"/><path d="M22 3h-6a4 4 0 00-4 4v14a3 3 0 013-3h7z"/></symbol><symbol id="book" viewBox="0 0 24 24"><path d="M4 19.5A2.5 2.5 0 016.5 17H20"/><path d="M6.5 2H20v20H6.5A2.5 2.5 0 014 19.5v-15A2.5 2.5 0 016.5 2z"/></symbol><symbol id="bookmark" viewBox="0 0 24 24"><path d="M19 21l-7-5-7 5V5a2 2 0 012-2h10a2 2 0 012 2z"/></symbol><symbol id="box" viewBox="0 0 24 24"><path d="M21 16V8a2 2 0 00-1-1.73l-7-4a2 2 0 00-2 0l-7 4A2 2 0 003 8v8a2 2 0 001 1.73l7 4a2 2 0 002 0l7-4A2 2 0 0021 16z"/><path d="M3.27 6.96L12 12.01l8.73-5.05"/><path d="M12 22.08V12"/></symbol><symbol id="briefcase" viewBox="0 0 24 24"><rect x="2" y="7" width="20" height="14" rx="2" ry="2"/><path d="M16 21V5a2 2 0 00-2-2h-4a2 2 0 00-2 2v16"/></symbol><symbol id="calendar" viewBox="0 0 24 24"><rect x="3" y="4" width="18" height="18" rx="2" ry="2"/><path d="M16 2v4"/><path d="M8 2v4"/><path d="M3 10h18"/></symbol><symbol id="camera-off" viewBox="0 0 24 24"><path d="M1 1l22 22"/><path d="M21 21H3a2 2 0 01-2-2V8a2 2 0 012-2h3m3-3h6l2 3h4a2 2 0 012 2v9.34m-7.72-2.06a4 4 0 11-5.56-5.56"/></symbol><symbol id="camera" viewBox="0 0 24 24"><path d="M23 19a2 2 0 01-2 2H3a2 2 0 01-2-2V8a2 2 0 012-2h4l2-3h6l2 3h4a2 2 0 012 2z"/><circle cx="12" cy="13" r="4"/></symbol><symbol id="cast" viewBox="0 0 24 24"><path d="M2 16.1A5 5 0 015.9 20M2 12.05A9 9 0 019.95 20M2 8V6a2 2 0 012-2h16a2 2 0 012 2v12a2 2 0 01-2 2h-6"/><path d="M2 20h.01"/></symbol><symbol id="check-circle" viewBox="0 0 24 24"><path d="M22 11.08V12a10 10 0 11-5.93-9.14"/><path d="M22 4L12 14.01l-3-3"/></symbol><symbol id="check-square" viewBox="0 0 24 24"><path d="M9 11l3 3L22 4"/><path d="M21 12v7a2 2 0 01-2 2H5a2 2 0 01-2-2V5a2 2 0 012-2h11"/></symbol><symbol id="check" viewBox="0 0 24 24"><path d="M20 6L9 17l-5-5"/></symbol><symbol id="chevron-down" viewBox="0 0 24 24"><path d="M6 9l6 6 6-6"/></symbol><symbol id="chevron-left" viewBox="0 0 24 24"><path d="M15 18l-6-6 6-6"/></symbol><symbol id="chevron-right" viewBox="0 0 24 24"><path d="M9 18l6-6-6-6"/></symbol><symbol id="chevron-up" viewBox="0 0 24 24"><path d="M18 15l-6-6-6 6"/></symbol><symbol id="chevrons-down" viewBox="0 0 24 24"><path d="M7 13l5 5 5-5"/><path d="M7 6l5 5 5-5"/></symbol><symbol id="chevrons-left" viewBox="0 0 24 24"><path d="M11 17l-5-5 5-5"/><path d="M18 17l-5-5 5-5"/></symbol><symbol id="chevrons-right" viewBox="0 0 24 24"><path d="M13 17l5-5-5-5"/><path d="M6 17l5-5-5-5"/></symbol><symbol id="chevrons-up" viewBox="0 0 24 24"><path d="M17 11l-5-5-5 5"/><path d="M17 18l-5-5-5 5"/></symbol><symbol id="chrome" viewBox="0 0 24 24"><circle cx="12" cy="12" r="10"/><circle cx="12" cy="12" r="4"/><path d="M21.17 8H12"/><path d="M3.95 6.06L8.54 14"/><path d="M10.88 21.94L15.46 14"/></symbol><symbol id="circle" viewBox="0 0 24 24"><circle cx="12" cy="12" r="10"/></symbol><symbol id="clipboard" viewBox="0 0 24 24"><path d="M16 4h2a2 2 0 012 2v14a2 2 0 01-2 2H6a2 2 0 01-2-2V6a2 2 0 012-2h2"/><rect x="8" y="2" width="8" height="4" rx="1" ry="1"/></symbol><symbol id="clock" viewBox="0 0 24 24"><circle cx="12" cy="12" r="10"/><path d="M12 6v6l4 2"/></symbol><symbol id="cloud-drizzle" viewBox="0 0 24 24"><path d="M8 19v2"/><path d="M8 13v2"/><path d="M16 19v2"/><path d="M16 13v2"/><path d="M12 21v2"/><path d="M12 15v2"/><path d="M20 16.58A5 5 0 0018 7h-1.26A8 8 0 104 15.25"/></symbol><symbol id="cloud-lightning" viewBox="0 0 24 24"><path d="M19 16.9A5 5 0 0018 7h-1.26a8 8 0 10-11.62 9"/><path d="M13 11l-4 6h6l-4 6"/></symbol><symbol id="cloud-off" viewBox="0 0 24 24"><path d="M22.61 16.95A5 5 0 0018 10h-1.26a8 8 0 00-7.05-6M5 5a8 8 0 004 15h9a5 5 0 001.7-.3"/><path d="M1 1l22 22"/></symbol><symbol id="cloud-rain" viewBox="0 0 24 24"><path d="M16 13v8"/><path d="M8 13v8"/><path d="M12 15v8"/><path d="M20 16.58A5 5 0 0018 7h-1.26A8 8 0 104 15.25"/></symbol><symbol id="cloud-snow" viewBox="0 0 24 24"><path d="M20 17.58A5 5 0 0018 8h-1.26A8 8 0 104 16.25"/><path d="M8 16h.01"/><path d="M8 20h.01"/><path d="M12 18h.01"/><path d="M12 22h.01"/><path d="M16 16h.01"/><path d="M16 20h.01"/></symbol><symbol id="cloud" viewBox="0 0 24 24"><path d="M18 10h-1.26A8 8 0 109 20h9a5 5 0 000-10z"/></symbol><symbol id="code" viewBox="0 0 24 24"><path d="M16 18l6-6-6-6"/><path d="M8 6l-6 6 6 6"/></symbol><symbol id="codepen" viewBox="0 0 24 24"><path d="M12 2l10 6.5v7L12 22 2 15.5v-7L12 2z"/><path d="M12 22v-6.5"/><path d="M22 8.5l-10 7-10-7"/><path d="M2 15.5l10-7 10 7"/><path d="M12 2v6.5"/></symbol><symbol id="codesandbox" viewBox="0 0 24 24"><path d="M21 16V8a2 2 0 00-1-1.73l-7-4a2 2 0 00-2 0l-7 4A2 2 0 003 8v8a2 2 0 001 1.73l7 4a2 2 0 002 0l7-4A2 2 0 0021 16z"/><path d="M7.5 4.21l4.5 2.6 4.5-2.6"/><path d="M7.5 19.79V14.6L3 12"/><path d="M21 12l-4.5 2.6v5.19"/><path d="M3.27 6.96L12 12.01l8.73-5.05"/><path d="M12 22.08V12"/></symbol><symbol id="coffee" viewBox="0 0 24 24"><path d="M18 8h1a4 4 0 010 8h-1"/><path d="M2 8h16v9a4 4 0 01-4 4H6a4 4 0 01-4-4V8z"/><path d="M6 1v3"/><path d="M10 1v3"/><path d="M14 1v3"/></symbol><symbol id="columns" viewBox="0 0 24 24"><path d="M12 3h7a2 2 0 012 2v14a2 2 0 01-2 2h-7m0-18H5a2 2 0 00-2 2v14a2 2 0 002 2h7m0-18v18"/></symbol><symbol id="command" viewBox="0 0 24 24"><path d="M18 3a3 3 0 00-3 3v12a3 3 0 003 3 3 3 0 003-3 3 3 0 00-3-3H6a3 3 0 00-3 3 3 3 0 003 3 3 3 0 003-3V6a3 3 0 00-3-3 3 3 0 00-3 3 3 3 0 003 3h12a3 3 0 003-3 3 3 0 00-3-3z"/></symbol><symbol id="compass" viewBox="0 0 24 24"><circle cx="12" cy="12" r="10"/><path d="M16.24 7.76l-2.12 6.36-6.36 2.12 2.12-6.36 6.36-2.12z"/></symbol><symbol id="copy" viewBox="0 0 24 24"><rect x="9" y="9" width="13" height="13" rx="2" ry="2"/><path d="M5 15H4a2 2 0 01-2-2V4a2 2 0 012-2h9a2 2 0 012 2v1"/></symbol><symbol id="corner-down-left" viewBox="0 0 24 24"><path d="M9 10l-5 5 5 5"/><path d="M20 4v7a4 4 0 01-4 4H4"/></symbol><symbol id="corner-down-right" viewBox="0 0 24 24"><path d="M15 10l5 5-5 5"/><path d="M4 4v7a4 4 0 004 4h12"/></symbol><symbol id="corner-left-down" viewBox="0 0 24 24"><path d="M14 15l-5 5-5-5"/><path d="M20 4h-7a4 4 0 00-4 4v12"/></symbol><symbol id="corner-left-up" viewBox="0 0 24 24"><path d="M14 9L9 4 4 9"/><path d="M20 20h-7a4 4 0 01-4-4V4"/></symbol><symbol id="corner-right-down" viewBox="0 0 24 24"><path d="M10 15l5 5 5-5"/><path d="M4 4h7a4 4 0 014 4v12"/></symbol><symbol id="corner-right-up" viewBox="0 0 24 24"><path d="M10 9l5-5 5 5"/><path d="M4 20h7a4 4 0 004-4V4"/></symbol><symbol id="corner-up-left" viewBox="0 0 24 24"><path d="M9 14L4 9l5-5"/><path d="M20 20v-7a4 4 0 00-4-4H4"/></symbol><symbol id="corner-up-right" viewBox="0 0 24 24"><path d="M15 14l5-5-5-5"/><path d="M4 20v-7a4 4 0 014-4h12"/></symbol><symbol id="cpu" viewBox="0 0 24 24"><rect x="4" y="4" width="16" height="16" rx="2" ry="2"/><path d="M9 9h6v6H9z"/><path d="M9 1v3"/><path d="M15 1v3"/><path d="M9 20v3"/><path d="M15 20v3"/><path d="M20 9h3"/><path d="M20 14h3"/><path d="M1 9h3"/><path d="M1 14h3"/></symbol><symbol id="credit-card" viewBox="0 0 24 24"><rect x="1" y="4" width="22" height="16" rx="2" ry="2"/><path d="M1 10h22"/></symbol><symbol id="crop" viewBox="0 0 24 24"><path d="M6.13 1L6 16a2 2 0 002 2h15"/><path d="M1 6.13L16 6a2 2 0 012 2v15"/></symbol><symbol id="crosshair" viewBox="0 0 24 24"><circle cx="12" cy="12" r="10"/><path d="M22 12h-4"/><path d="M6 12H2"/><path d="M12 6V2"/><path d="M12 22v-4"/></symbol><symbol id="database" viewBox="0 0 24 24"><ellipse cx="12" cy="5" rx="9" ry="3"/><path d="M21 12c0 1.66-4 3-9 3s-9-1.34-9-3"/><path d="M3 5v14c0 1.66 4 3 9 3s9-1.34 9-3V5"/></symbol><symbol id="delete" viewBox="0 0 24 24"><path d="M21 4H8l-7 8 7 8h13a2 2 0 002-2V6a2 2 0 00-2-2z"/><path d="M18 9l-6 6"/><path d="M12 9l6 6"/></symbol><symbol id="disc" viewBox="0 0 24 24"><circle cx="12" cy="12" r="10"/><circle cx="12" cy="12" r="3"/></symbol><symbol id="divide-circle" viewBox="0 0 24 24"><path d="M8 12h8"/><circle cx="12" cy="12" r="10"/></symbol><symbol id="divide-square" viewBox="0 0 24 24"><rect x="3" y="3" width="18" height="18" rx="2" ry="2"/><path d="M8 12h8"/></symbol><symbol id="divide" viewBox="0 0 24 24"><circle cx="12" cy="6" r="2"/><path d="M5 12h14"/><circle cx="12" cy="18" r="2"/></symbol><symbol id="dollar-sign" viewBox="0 0 24 24"><path d="M12 1v22"/><path d="M17 5H9.5a3.5 3.5 0 000 7h5a3.5 3.5 0 010 7H6"/></symbol><symbol id="download-cloud" viewBox="0 0 24 24"><path d="M8 17l4 4 4-4"/><path d="M12 12v9"/><path d="M20.88 18.09A5 5 0 0018 9h-1.26A8 8 0 103 16.29"/></symbol><symbol id="download" viewBox="0 0 24 24"><path d="M21 15v4a2 2 0 01-2 2H5a2 2 0 01-2-2v-4"/><path d="M7 10l5 5 5-5"/><path d="M12 15V3"/></symbol><symbol id="dribbble" viewBox="0 0 24 24"><circle cx="12" cy="12" r="10"/><path d="M8.56 2.75c4.37 6.03 6.02 9.42 8.03 17.72m2.54-15.38c-3.72 4.35-8.94 5.66-16.88 5.85m19.5 1.9c-3.5-.93-6.63-.82-8.94 0-2.58.92-5.01 2.86-7.44 6.32"/></symbol><symbol id="droplet" viewBox="0 0 24 24"><path d="M12 2.69l5.66 5.66a8 8 0 11-11.31 0z"/></symbol><symbol id="edit-2" viewBox="0 0 24 24"><path d="M17 3a2.828 2.828 0 114 4L7.5 20.5 2 22l1.5-5.5L17 3z"/></symbol><symbol id="edit-3" viewBox="0 0 24 24"><path d="M12 20h9"/><path d="M16.5 3.5a2.121 2.121 0 013 3L7 19l-4 1 1-4L16.5 3.5z"/></symbol><symbol id="edit" viewBox="0 0 24 24"><path d="M11 4H4a2 2 0 00-2 2v14a2 2 0 002 2h14a2 2 0 002-2v-7"/><path d="M18.5 2.5a2.121 2.121 0 013 3L12 15l-4 1 1-4 9.5-9.5z"/></symbol><symbol id="external-link" viewBox="0 0 24 24"><path d="M18 13v6a2 2 0 01-2 2H5a2 2 0 01-2-2V8a2 2 0 012-2h6"/><path d="M15 3h6v6"/><path d="M10 14L21 3"/></symbol><symbol id="eye-off" viewBox="0 0 24 24"><path d="M17.94 17.94A10.07 10.07 0 0112 20c-7 0-11-8-11-8a18.45 18.45 0 015.06-5.94M9.9 4.24A9.12 9.12 0 0112 4c7 0 11 8 11 8a18.5 18.5 0 01-2.16 3.19m-6.72-1.07a3 3 0 11-4.24-4.24"/><path d="M1 1l22 22"/></symbol><symbol id="eye" viewBox="0 0 24 24"><path d="M1 12s4-8 11-8 11 8 11 8-4 8-11 8-11-8-11-8z"/><circle cx="12" cy="12" r="3"/></symbol><symbol id="facebook" viewBox="0 0 24 24"><path d="M18 2h-3a5 5 0 00-5 5v3H7v4h3v8h4v-8h3l1-4h-4V7a1 1 0 011-1h3z"/></symbol><symbol id="fast-forward" viewBox="0 0 24 24"><path d="M13 19l9-7-9-7v14z"/><path d="M2 19l9-7-9-7v14z"/></symbol><symbol id="feather" viewBox="0 0 24 24"><path d="M20.24 12.24a6 6 0 00-8.49-8.49L5 10.5V19h8.5z"/><path d="M16 8L2 22"/><path d="M17.5 15H9"/></symbol><symbol id="figma" viewBox="0 0 24 24"><path d="M5 5.5A3.5 3.5 0 018.5 2H12v7H8.5A3.5 3.5 0 015 5.5z"/><path d="M12 2h3.5a3.5 3.5 0 110 7H12V2z"/><path d="M12 12.5a3.5 3.5 0 117 0 3.5 3.5 0 11-7 0z"/><path d="M5 19.5A3.5 3.5 0 018.5 16H12v3.5a3.5 3.5 0 11-7 0z"/><path d="M5 12.5A3.5 3.5 0 018.5 9H12v7H8.5A3.5 3.5 0 015 12.5z"/></symbol><symbol id="file-minus" viewBox="0 0 24 24"><path d="M14 2H6a2 2 0 00-2 2v16a2 2 0 002 2h12a2 2 0 002-2V8z"/><path d="M14 2v6h6"/><path d="M9 15h6"/></symbol><symbol id="file-plus" viewBox="0 0 24 24"><path d="M14 2H6a2 2 0 00-2 2v16a2 2 0 002 2h12a2 2 0 002-2V8z"/><path d="M14 2v6h6"/><path d="M12 18v-6"/><path d="M9 15h6"/></symbol><symbol id="file-text" viewBox="0 0 24 24"><path d="M14 2H6a2 2 0 00-2 2v16a2 2 0 002 2h12a2 2 0 002-2V8z"/><path d="M14 2v6h6"/><path d="M16 13H8"/><path d="M16 17H8"/><path d="M10 9H8"/></symbol><symbol id="file" viewBox="0 0 24 24"><path d="M13 2H6a2 2 0 00-2 2v16a2 2 0 002 2h12a2 2 0 002-2V9z"/><path d="M13 2v7h7"/></symbol><symbol id="film" viewBox="0 0 24 24"><rect x="2" y="2" width="20" height="20" rx="2.18" ry="2.18"/><path d="M7 2v20"/><path d="M17 2v20"/><path d="M2 12h20"/><path d="M2 7h5"/><path d="M2 17h5"/><path d="M17 17h5"/><path d="M17 7h5"/></symbol><symbol id="filter" viewBox="0 0 24 24"><path d="M22 3H2l8 9.46V19l4 2v-8.54L22 3z"/></symbol><symbol id="flag" viewBox="0 0 24 24"><path d="M4 15s1-1 4-1 5 2 8 2 4-1 4-1V3s-1 1-4 1-5-2-8-2-4 1-4 1z"/><path d="M4 22v-7"/></symbol><symbol id="folder-minus" viewBox="0 0 24 24"><path d="M22 19a2 2 0 01-2 2H4a2 2 0 01-2-2V5a2 2 0 012-2h5l2 3h9a2 2 0 012 2z"/><path d="M9 14h6"/></symbol><symbol id="folder-plus" viewBox="0 0 24 24"><path d="M22 19a2 2 0 01-2 2H4a2 2 0 01-2-2V5a2 2 0 012-2h5l2 3h9a2 2 0 012 2z"/><path d="M12 11v6"/><path d="M9 14h6"/></symbol><symbol id="folder" viewBox="0 0 24 24"><path d="M22 19a2 2 0 01-2 2H4a2 2 0 01-2-2V5a2 2 0 012-2h5l2 3h9a2 2 0 012 2z"/></symbol><symbol id="framer" viewBox="0 0 24 24"><path d="M5 16V9h14V2H5l14 14h-7m-7 0l7 7v-7m-7 0h7"/></symbol><symbol id="frown" viewBox="0 0 24 24"><circle cx="12" cy="12" r="10"/><path d="M16 16s-1.5-2-4-2-4 2-4 2"/><path d="M9 9h.01"/><path d="M15 9h.01"/></symbol><symbol id="gift" viewBox="0 0 24 24"><path d="M20 12v10H4V12"/><path d="M2 7h20v5H2z"/><path d="M12 22V7"/><path d="M12 7H7.5a2.5 2.5 0 010-5C11 2 12 7 12 7z"/><path d="M12 7h4.5a2.5 2.5 0 000-5C13 2 12 7 12 7z"/></symbol><symbol id="git-branch" viewBox="0 0 24 24"><path d="M6 3v12"/><circle cx="18" cy="6" r="3"/><circle cx="6" cy="18" r="3"/><path d="M18 9a9 9 0 01-9 9"/></symbol><symbol id="git-commit" viewBox="0 0 24 24"><circle cx="12" cy="12" r="4"/><path d="M1.05 12H7"/><path d="M17.01 12h5.95"/></symbol><symbol id="git-merge" viewBox="0 0 24 24"><circle cx="18" cy="18" r="3"/><circle cx="6" cy="6" r="3"/><path d="M6 21V9a9 9 0 009 9"/></symbol><symbol id="git-pull-request" viewBox="0 0 24 24"><circle cx="18" cy="18" r="3"/><circle cx="6" cy="6" r="3"/><path d="M13 6h3a2 2 0 012 2v7"/><path d="M6 9v12"/></symbol><symbol id="github" viewBox="0 0 24 24"><path d="M9 19c-5 1.5-5-2.5-7-3m14 6v-3.87a3.37 3.37 0 00-.94-2.61c3.14-.35 6.44-1.54 6.44-7A5.44 5.44 0 0020 4.77 5.07 5.07 0 0019.91 1S18.73.65 16 2.48a13.38 13.38 0 00-7 0C6.27.65 5.09 1 5.09 1A5.07 5.07 0 005 4.77a5.44 5.44 0 00-1.5 3.78c0 5.42 3.3 6.61 6.44 7A3.37 3.37 0 009 18.13V22"/></symbol><symbol id="gitlab" viewBox="0 0 24 24"><path d="M22.65 14.39L12 22.13 1.35 14.39a.84.84 0 01-.3-.94l1.22-3.78 2.44-7.51A.42.42 0 014.82 2a.43.43 0 01.58 0 .42.42 0 01.11.18l2.44 7.49h8.1l2.44-7.51A.42.42 0 0118.6 2a.43.43 0 01.58 0 .42.42 0 01.11.18l2.44 7.51L23 13.45a.84.84 0 01-.35.94z"/></symbol><symbol id="globe" viewBox="0 0 24 24"><circle cx="12" cy="12" r="10"/><path d="M2 12h20"/><path d="M12 2a15.3 15.3 0 014 10 15.3 15.3 0 01-4 10 15.3 15.3 0 01-4-10 15.3 15.3 0 014-10z"/></symbol><symbol id="grid" viewBox="0 0 24 24"><path d="M3 3h7v7H3z"/><path d="M14 3h7v7h-7z"/><path d="M14 14h7v7h-7z"/><path d="M3 14h7v7H3z"/></symbol><symbol id="hard-drive" viewBox="0 0 24 24"><path d="M22 12H2"/><path d="M5.45 5.11L2 12v6a2 2 0 002 2h16a2 2 0 002-2v-6l-3.45-6.89A2 2 0 0016.76 4H7.24a2 2 0 00-1.79 1.11z"/><path d="M6 16h.01"/><path d="M10 16h.01"/></symbol><symbol id="hash" viewBox="0 0 24 24"><path d="M4 9h16"/><path d="M4 15h16"/><path d="M10 3L8 21"/><path d="M16 3l-2 18"/></symbol><symbol id="headphones" viewBox="0 0 24 24"><path d="M3 18v-6a9 9 0 0118 0v6"/><path d="M21 19a2 2 0 01-2 2h-1a2 2 0 01-2-2v-3a2 2 0 012-2h3zM3 19a2 2 0 002 2h1a2 2 0 002-2v-3a2 2 0 00-2-2H3z"/></symbol><symbol id="heart" viewBox="0 0 24 24"><path d="M20.84 4.61a5.5 5.5 0 00-7.78 0L12 5.67l-1.06-1.06a5.5 5.5 0 00-7.78 7.78l1.06 1.06L12 21.23l7.78-7.78 1.06-1.06a5.5 5.5 0 000-7.78z"/></symbol><symbol id="help-circle" viewBox="0 0 24 24"><circle cx="12" cy="12" r="10"/><path d="M9.09 9a3 3 0 015.83 1c0 2-3 3-3 3"/><path d="M12 17h.01"/></symbol><symbol id="hexagon" viewBox="0 0 24 24"><path d="M21 16V8a2 2 0 00-1-1.73l-7-4a2 2 0 00-2 0l-7 4A2 2 0 003 8v8a2 2 0 001 1.73l7 4a2 2 0 002 0l7-4A2 2 0 0021 16z"/></symbol><symbol id="home" viewBox="0 0 24 24"><path d="M3 9l9-7 9 7v11a2 2 0 01-2 2H5a2 2 0 01-2-2z"/><path d="M9 22V12h6v10"/></symbol><symbol id="image" viewBox="0 0 24 24"><rect x="3" y="3" width="18" height="18" rx="2" ry="2"/><circle cx="8.5" cy="8.5" r="1.5"/><path d="M21 15l-5-5L5 21"/></symbol><symbol id="inbox" viewBox="0 0 24 24"><path d="M22 12h-6l-2 3h-4l-2-3H2"/><path d="M5.45 5.11L2 12v6a2 2 0 002 2h16a2 2 0 002-2v-6l-3.45-6.89A2 2 0 0016.76 4H7.24a2 2 0 00-1.79 1.11z"/></symbol><symbol id="info" viewBox="0 0 24 24"><circle cx="12" cy="12" r="10"/><path d="M12 16v-4"/><path d="M12 8h.01"/></symbol><symbol id="instagram" viewBox="0 0 24 24"><rect x="2" y="2" width="20" height="20" rx="5" ry="5"/><path d="M16 11.37A4 4 0 1112.63 8 4 4 0 0116 11.37z"/><path d="M17.5 6.5h.01"/></symbol><symbol id="italic" viewBox="0 0 24 24"><path d="M19 4h-9"/><path d="M14 20H5"/><path d="M15 4L9 20"/></symbol><symbol id="key" viewBox="0 0 24 24"><path d="M21 2l-2 2m-7.61 7.61a5.5 5.5 0 11-7.778 7.778 5.5 5.5 0 017.777-7.777zm0 0L15.5 7.5m0 0l3 3L22 7l-3-3m-3.5 3.5L19 4"/></symbol><symbol id="layers" viewBox="0 0 24 24"><path d="M12 2L2 7l10 5 10-5-10-5z"/><path d="M2 17l10 5 10-5"/><path d="M2 12l10 5 10-5"/></symbol><symbol id="layout" viewBox="0 0 24 24"><rect x="3" y="3" width="18" height="18" rx="2" ry="2"/><path d="M3 9h18"/><path d="M9 21V9"/></symbol><symbol id="life-buoy" viewBox="0 0 24 24"><circle cx="12" cy="12" r="10"/><circle cx="12" cy="12" r="4"/><path d="M4.93 4.93l4.24 4.24"/><path d="M14.83 14.83l4.24 4.24"/><path d="M14.83 9.17l4.24-4.24"/><path d="M14.83 9.17l3.53-3.53"/><path d="M4.93 19.07l4.24-4.24"/></symbol><symbol id="link-2" viewBox="0 0 24 24"><path d="M15 7h3a5 5 0 015 5 5 5 0 01-5 5h-3m-6 0H6a5 5 0 01-5-5 5 5 0 015-5h3"/><path d="M8 12h8"/></symbol><symbol id="link" viewBox="0 0 24 24"><path d="M10 13a5 5 0 007.54.54l3-3a5 5 0 00-7.07-7.07l-1.72 1.71"/><path d="M14 11a5 5 0 00-7.54-.54l-3 3a5 5 0 007.07 7.07l1.71-1.71"/></symbol><symbol id="linkedin" viewBox="0 0 24 24"><path d="M16 8a6 6 0 016 6v7h-4v-7a2 2 0 00-2-2 2 2 0 00-2 2v7h-4v-7a6 6 0 016-6z"/><path d="M2 9h4v12H2z"/><circle cx="4" cy="4" r="2"/></symbol><symbol id="list" viewBox="0 0 24 24"><path d="M8 6h13"/><path d="M8 12h13"/><path d="M8 18h13"/><path d="M3 6h.01"/><path d="M3 12h.01"/><path d="M3 18h.01"/></symbol><symbol id="loader" viewBox="0 0 24 24"><path d="M12 2v4"/><path d="M12 18v4"/><path d="M4.93 4.93l2.83 2.83"/><path d="M16.24 16.24l2.83 2.83"/><path d="M2 12h4"/><path d="M18 12h4"/><path d="M4.93 19.07l2.83-2.83"/><path d="M16.24 7.76l2.83-2.83"/></symbol><symbol id="lock" viewBox="0 0 24 24"><rect x="3" y="11" width="18" height="11" rx="2" ry="2"/><path d="M7 11V7a5 5 0 0110 0v4"/></symbol><symbol id="log-in" viewBox="0 0 24 24"><path d="M15 3h4a2 2 0 012 2v14a2 2 0 01-2 2h-4"/><path d="M10 17l5-5-5-5"/><path d="M15 12H3"/></symbol><symbol id="log-out" viewBox="0 0 24 24"><path d="M9 21H5a2 2 0 01-2-2V5a2 2 0 012-2h4"/><path d="M16 17l5-5-5-5"/><path d="M21 12H9"/></symbol><symbol id="mail" viewBox="0 0 24 24"><path d="M4 4h16c1.1 0 2 .9 2 2v12c0 1.1-.9 2-2 2H4c-1.1 0-2-.9-2-2V6c0-1.1.9-2 2-2z"/><path d="M22 6l-10 7L2 6"/></symbol><symbol id="map-pin" viewBox="0 0 24 24"><path d="M21 10c0 7-9 13-9 13s-9-6-9-13a9 9 0 0118 0z"/><circle cx="12" cy="10" r="3"/></symbol><symbol id="map" viewBox="0 0 24 24"><path d="M1 6v16l7-4 8 4 7-4V2l-7 4-8-4-7 4z"/><path d="M8 2v16"/><path d="M16 6v16"/></symbol><symbol id="maximize-2" viewBox="0 0 24 24"><path d="M15 3h6v6"/><path d="M9 21H3v-6"/><path d="M21 3l-7 7"/><path d="M3 21l7-7"/></symbol><symbol id="maximize" viewBox="0 0 24 24"><path d="M8 3H5a2 2 0 00-2 2v3m18 0V5a2 2 0 00-2-2h-3m0 18h3a2 2 0 002-2v-3M3 16v3a2 2 0 002 2h3"/></symbol><symbol id="meh" viewBox="0 0 24 24"><circle cx="12" cy="12" r="10"/><path d="M8 15h8"/><path d="M9 9h.01"/><path d="M15 9h.01"/></symbol><symbol id="menu" viewBox="0 0 24 24"><path d="M3 12h18"/><path d="M3 6h18"/><path d="M3 18h18"/></symbol><symbol id="message-circle" viewBox="0 0 24 24"><path d="M21 11.5a8.38 8.38 0 01-.9 3.8 8.5 8.5 0 01-7.6 4.7 8.38 8.38 0 01-3.8-.9L3 21l1.9-5.7a8.38 8.38 0 01-.9-3.8 8.5 8.5 0 014.7-7.6 8.38 8.38 0 013.8-.9h.5a8.48 8.48 0 018 8v.5z"/></symbol><symbol id="message-square" viewBox="0 0 24 24"><path d="M21 15a2 2 0 01-2 2H7l-4 4V5a2 2 0 012-2h14a2 2 0 012 2z"/></symbol><symbol id="mic-off" viewBox="0 0 24 24"><path d="M1 1l22 22"/><path d="M9 9v3a3 3 0 005.12 2.12M15 9.34V4a3 3 0 00-5.94-.6"/><path d="M17 16.95A7 7 0 015 12v-2m14 0v2a7 7 0 01-.11 1.23"/><path d="M12 19v4"/><path d="M8 23h8"/></symbol><symbol id="mic" viewBox="0 0 24 24"><path d="M12 1a3 3 0 00-3 3v8a3 3 0 006 0V4a3 3 0 00-3-3z"/><path d="M19 10v2a7 7 0 01-14 0v-2"/><path d="M12 19v4"/><path d="M8 23h8"/></symbol><symbol id="minimize-2" viewBox="0 0 24 24"><path d="M4 14h6v6"/><path d="M20 10h-6V4"/><path d="M14 10l7-7"/><path d="M3 21l7-7"/></symbol><symbol id="minimize" viewBox="0 0 24 24"><path d="M8 3v3a2 2 0 01-2 2H3m18 0h-3a2 2 0 01-2-2V3m0 18v-3a2 2 0 012-2h3M3 16h3a2 2 0 012 2v3"/></symbol><symbol id="minus-circle" viewBox="0 0 24 24"><circle cx="12" cy="12" r="10"/><path d="M8 12h8"/></symbol><symbol id="minus-square" viewBox="0 0 24 24"><rect x="3" y="3" width="18" height="18" rx="2" ry="2"/><path d="M8 12h8"/></symbol><symbol id="minus" viewBox="0 0 24 24"><path d="M5 12h14"/></symbol><symbol id="monitor" viewBox="0 0 24 24"><rect x="2" y="3" width="20" height="14" rx="2" ry="2"/><path d="M8 21h8"/><path d="M12 17v4"/></symbol><symbol id="moon" viewBox="0 0 24 24"><path d="M21 12.79A9 9 0 1111.21 3 7 7 0 0021 12.79z"/></symbol><symbol id="more-horizontal" viewBox="0 0 24 24"><circle cx="12" cy="12" r="1"/><circle cx="19" cy="12" r="1"/><circle cx="5" cy="12" r="1"/></symbol><symbol id="more-vertical" viewBox="0 0 24 24"><circle cx="12" cy="12" r="1"/><circle cx="12" cy="5" r="1"/><circle cx="12" cy="19" r="1"/></symbol><symbol id="mouse-pointer" viewBox="0 0 24 24"><path d="M3 3l7.07 16.97 2.51-7.39 7.39-2.51L3 3z"/><path d="M13 13l6 6"/></symbol><symbol id="move" viewBox="0 0 24 24"><path d="M5 9l-3 3 3 3"/><path d="M9 5l3-3 3 3"/><path d="M15 19l-3 3-3-3"/><path d="M19 9l3 3-3 3"/><path d="M2 12h20"/><path d="M12 2v20"/></symbol><symbol id="music" viewBox="0 0 24 24"><path d="M9 18V5l12-2v13"/><circle cx="6" cy="18" r="3"/><circle cx="18" cy="16" r="3"/></symbol><symbol id="navigation-2" viewBox="0 0 24 24"><path d="M12 2l7 19-7-4-7 4 7-19z"/></symbol><symbol id="navigation" viewBox="0 0 24 24"><path d="M3 11l19-9-9 19-2-8-8-2z"/></symbol><symbol id="octagon" viewBox="0 0 24 24"><path d="M7.86 2h8.28L22 7.86v8.28L16.14 22H7.86L2 16.14V7.86L7.86 2z"/></symbol><symbol id="package" viewBox="0 0 24 24"><path d="M16.5 9.4l-9-5.19"/><path d="M21 16V8a2 2 0 00-1-1.73l-7-4a2 2 0 00-2 0l-7 4A2 2 0 003 8v8a2 2 0 001 1.73l7 4a2 2 0 002 0l7-4A2 2 0 0021 16z"/><path d="M3.27 6.96L12 12.01l8.73-5.05"/><path d="M12 22.08V12"/></symbol><symbol id="paperclip" viewBox="0 0 24 24"><path d="M21.44 11.05l-9.19 9.19a6 6 0 01-8.49-8.49l9.19-9.19a4 4 0 015.66 5.66l-9.2 9.19a2 2 0 01-2.83-2.83l8.49-8.48"/></symbol><symbol id="pause-circle" viewBox="0 0 24 24"><circle cx="12" cy="12" r="10"/><path d="M10 15V9"/><path d="M14 15V9"/></symbol><symbol id="pause" viewBox="0 0 24 24"><path d="M6 4h4v16H6z"/><path d="M14 4h4v16h-4z"/></symbol><symbol id="pen-tool" viewBox="0 0 24 24"><path d="M12 19l7-7 3 3-7 7-3-3z"/><path d="M18 13l-1.5-7.5L2 2l3.5 14.5L13 18l5-5z"/><path d="M2 2l7.586 7.586"/><circle cx="11" cy="11" r="2"/></symbol><symbol id="percent" viewBox="0 0 24 24"><path d="M19 5L5 19"/><circle cx="6.5" cy="6.5" r="2.5"/><circle cx="17.5" cy="17.5" r="2.5"/></symbol><symbol id="phone-call" viewBox="0 0 24 24"><path d="M15.05 5A5 5 0 0119 8.95M15.05 1A9 9 0 0123 8.94m-1 7.98v3a2 2 0 01-2.18 2 19.79 19.79 0 01-8.63-3.07 19.5 19.5 0 01-6-6 19.79 19.79 0 01-3.07-8.67A2 2 0 014.11 2h3a2 2 0 012 1.72 12.84 12.84 0 00.7 2.81 2 2 0 01-.45 2.11L8.09 9.91a16 16 0 006 6l1.27-1.27a2 2 0 012.11-.45 12.84 12.84 0 002.81.7A2 2 0 0122 16.92z"/></symbol><symbol id="phone-forwarded" viewBox="0 0 24 24"><path d="M19 1l4 4-4 4"/><path d="M15 5h8"/><path d="M22 16.92v3a2 2 0 01-2.18 2 19.79 19.79 0 01-8.63-3.07 19.5 19.5 0 01-6-6 19.79 19.79 0 01-3.07-8.67A2 2 0 014.11 2h3a2 2 0 012 1.72 12.84 12.84 0 00.7 2.81 2 2 0 01-.45 2.11L8.09 9.91a16 16 0 006 6l1.27-1.27a2 2 0 012.11-.45 12.84 12.84 0 002.81.7A2 2 0 0122 16.92z"/></symbol><symbol id="phone-incoming" viewBox="0 0 24 24"><path d="M16 2v6h6"/><path d="M23 1l-7 7"/><path d="M22 16.92v3a2 2 0 01-2.18 2 19.79 19.79 0 01-8.63-3.07 19.5 19.5 0 01-6-6 19.79 19.79 0 01-3.07-8.67A2 2 0 014.11 2h3a2 2 0 012 1.72 12.84 12.84 0 00.7 2.81 2 2 0 01-.45 2.11L8.09 9.91a16 16 0 006 6l1.27-1.27a2 2 0 012.11-.45 12.84 12.84 0 002.81.7A2 2 0 0122 16.92z"/></symbol><symbol id="phone-missed" viewBox="0 0 24 24"><path d="M23 1l-6 6"/><path d="M17 1l6 6"/><path d="M22 16.92v3a2 2 0 01-2.18 2 19.79 19.79 0 01-8.63-3.07 19.5 19.5 0 01-6-6 19.79 19.79 0 01-3.07-8.67A2 2 0 014.11 2h3a2 2 0 012 1.72 12.84 12.84 0 00.7 2.81 2 2 0 01-.45 2.11L8.09 9.91a16 16 0 006 6l1.27-1.27a2 2 0 012.11-.45 12.84 12.84 0 002.81.7A2 2 0 0122 16.92z"/></symbol><symbol id="phone-off" viewBox="0 0 24 24"><path d="M10.68 13.31a16 16 0 003.41 2.6l1.27-1.27a2 2 0 012.11-.45 12.84 12.84 0 002.81.7 2 2 0 011.72 2v3a2 2 0 01-2.18 2 19.79 19.79 0 01-8.63-3.07 19.42 19.42 0 01-3.33-2.67m-2.67-3.34a19.79 19.79 0 01-3.07-8.63A2 2 0 014.11 2h3a2 2 0 012 1.72 12.84 12.84 0 00.7 2.81 2 2 0 01-.45 2.11L8.09 9.91"/><path d="M23 1L1 23"/></symbol><symbol id="phone-outgoing" viewBox="0 0 24 24"><path d="M23 7V1h-6"/><path d="M16 8l7-7"/><path d="M22 16.92v3a2 2 0 01-2.18 2 19.79 19.79 0 01-8.63-3.07 19.5 19.5 0 01-6-6 19.79 19.79 0 01-3.07-8.67A2 2 0 014.11 2h3a2 2 0 012 1.72 12.84 12.84 0 00.7 2.81 2 2 0 01-.45 2.11L8.09 9.91a16 16 0 006 6l1.27-1.27a2 2 0 012.11-.45 12.84 12.84 0 002.81.7A2 2 0 0122 16.92z"/></symbol><symbol id="phone" viewBox="0 0 24 24"><path d="M22 16.92v3a2 2 0 01-2.18 2 19.79 19.79 0 01-8.63-3.07 19.5 19.5 0 01-6-6 19.79 19.79 0 01-3.07-8.67A2 2 0 014.11 2h3a2 2 0 012 1.72 12.84 12.84 0 00.7 2.81 2 2 0 01-.45 2.11L8.09 9.91a16 16 0 006 6l1.27-1.27a2 2 0 012.11-.45 12.84 12.84 0 002.81.7A2 2 0 0122 16.92z"/></symbol><symbol id="pie-chart" viewBox="0 0 24 24"><path d="M21.21 15.89A10 10 0 118 2.83"/><path d="M22 12A10 10 0 0012 2v10z"/></symbol><symbol id="play-circle" viewBox="0 0 24 24"><circle cx="12" cy="12" r="10"/><path d="M10 8l6 4-6 4V8z"/></symbol><symbol id="play" viewBox="0 0 24 24"><path d="M5 3l14 9-14 9V3z"/></symbol><symbol id="plus-circle" viewBox="0 0 24 24"><circle cx="12" cy="12" r="10"/><path d="M12 8v8"/><path d="M8 12h8"/></symbol><symbol id="plus-square" viewBox="0 0 24 24"><rect x="3" y="3" width="18" height="18" rx="2" ry="2"/><path d="M12 8v8"/><path d="M8 12h8"/></symbol><symbol id="plus" viewBox="0 0 24 24"><path d="M12 5v14"/><path d="M5 12h14"/></symbol><symbol id="pocket" viewBox="0 0 24 24"><path d="M4 3h16a2 2 0 012 2v6a10 10 0 01-10 10A10 10 0 012 11V5a2 2 0 012-2z"/><path d="M8 10l4 4 4-4"/></symbol><symbol id="power" viewBox="0 0 24 24"><path d="M18.36 6.64a9 9 0 11-12.73 0"/><path d="M12 2v10"/></symbol><symbol id="printer" viewBox="0 0 24 24"><path d="M6 9V2h12v7"/><path d="M6 18H4a2 2 0 01-2-2v-5a2 2 0 012-2h16a2 2 0 012 2v5a2 2 0 01-2 2h-2"/><path d="M6 14h12v8H6z"/></symbol><symbol id="radio" viewBox="0 0 24 24"><circle cx="12" cy="12" r="2"/><path d="M16.24 7.76a6 6 0 010 8.49m-8.48-.01a6 6 0 010-8.49m11.31-2.82a10 10 0 010 14.14m-14.14 0a10 10 0 010-14.14"/></symbol><symbol id="refresh-ccw" viewBox="0 0 24 24"><path d="M1 4v6h6"/><path d="M23 20v-6h-6"/><path d="M20.49 9A9 9 0 005.64 5.64L1 10m22 4l-4.64 4.36A9 9 0 013.51 15"/></symbol><symbol id="refresh-cw" viewBox="0 0 24 24"><path d="M23 4v6h-6"/><path d="M1 20v-6h6"/><path d="M3.51 9a9 9 0 0114.85-3.36L23 10M1 14l4.64 4.36A9 9 0 0020.49 15"/></symbol><symbol id="repeat" viewBox="0 0 24 24"><path d="M17 1l4 4-4 4"/><path d="M3 11V9a4 4 0 014-4h14"/><path d="M7 23l-4-4 4-4"/><path d="M21 13v2a4 4 0 01-4 4H3"/></symbol><symbol id="rewind" viewBox="0 0 24 24"><path d="M11 19l-9-7 9-7v14z"/><path d="M22 19l-9-7 9-7v14z"/></symbol><symbol id="rotate-ccw" viewBox="0 0 24 24"><path d="M1 4v6h6"/><path d="M3.51 15a9 9 0 102.13-9.36L1 10"/></symbol><symbol id="rotate-cw" viewBox="0 0 24 24"><path d="M23 4v6h-6"/><path d="M20.49 15a9 9 0 11-2.12-9.36L23 10"/></symbol><symbol id="rss" viewBox="0 0 24 24"><path d="M4 11a9 9 0 019 9"/><path d="M4 4a16 16 0 0116 16"/><circle cx="5" cy="19" r="1"/></symbol><symbol id="save" viewBox="0 0 24 24"><path d="M19 21H5a2 2 0 01-2-2V5a2 2 0 012-2h11l5 5v11a2 2 0 01-2 2z"/><path d="M17 21v-8H7v8"/><path d="M7 3v5h8"/></symbol><symbol id="scissors" viewBox="0 0 24 24"><circle cx="6" cy="6" r="3"/><circle cx="6" cy="18" r="3"/><path d="M20 4L8.12 15.88"/><path d="M14.47 14.48L20 20"/><path d="M8.12 8.12L12 12"/></symbol><symbol id="search" viewBox="0 0 24 24"><circle cx="11" cy="11" r="8"/><path d="M21 21l-4.35-4.35"/></symbol><symbol id="send" viewBox="0 0 24 24"><path d="M22 2L11 13"/><path d="M22 2l-7 20-4-9-9-4 20-7z"/></symbol><symbol id="server" viewBox="0 0 24 24"><rect x="2" y="2" width="20" height="8" rx="2" ry="2"/><rect x="2" y="14" width="20" height="8" rx="2" ry="2"/><path d="M6 6h.01"/><path d="M6 18h.01"/></symbol><symbol id="settings" viewBox="0 0 24 24"><circle cx="12" cy="12" r="3"/><path d="M19.4 15a1.65 1.65 0 00.33 1.82l.06.06a2 2 0 010 2.83 2 2 0 01-2.83 0l-.06-.06a1.65 1.65 0 00-1.82-.33 1.65 1.65 0 00-1 1.51V21a2 2 0 01-2 2 2 2 0 01-2-2v-.09A1.65 1.65 0 009 19.4a1.65 1.65 0 00-1.82.33l-.06.06a2 2 0 01-2.83 0 2 2 0 010-2.83l.06-.06a1.65 1.65 0 00.33-1.82 1.65 1.65 0 00-1.51-1H3a2 2 0 01-2-2 2 2 0 012-2h.09A1.65 1.65 0 004.6 9a1.65 1.65 0 00-.33-1.82l-.06-.06a2 2 0 010-2.83 2 2 0 012.83 0l.06.06a1.65 1.65 0 001.82.33H9a1.65 1.65 0 001-1.51V3a2 2 0 012-2 2 2 0 012 2v.09a1.65 1.65 0 001 1.51 1.65 1.65 0 001.82-.33l.06-.06a2 2 0 012.83 0 2 2 0 010 2.83l-.06.06a1.65 1.65 0 00-.33 1.82V9a1.65 1.65 0 001.51 1H21a2 2 0 012 2 2 2 0 01-2 2h-.09a1.65 1.65 0 00-1.51 1z"/></symbol><symbol id="share-2" viewBox="0 0 24 24"><circle cx="18" cy="5" r="3"/><circle cx="6" cy="12" r="3"/><circle cx="18" cy="19" r="3"/><path d="M8.59 13.51l6.83 3.98"/><path d="M15.41 6.51l-6.82 3.98"/></symbol><symbol id="share" viewBox="0 0 24 24"><path d="M4 12v8a2 2 0 002 2h12a2 2 0 002-2v-8"/><path d="M16 6l-4-4-4 4"/><path d="M12 2v13"/></symbol><symbol id="shield-off" viewBox="0 0 24 24"><path d="M19.69 14a6.9 6.9 0 00.31-2V5l-8-3-3.16 1.18"/><path d="M4.73 4.73L4 5v7c0 6 8 10 8 10a20.29 20.29 0 005.62-4.38"/><path d="M1 1l22 22"/></symbol><symbol id="shield" viewBox="0 0 24 24"><path d="M12 22s8-4 8-10V5l-8-3-8 3v7c0 6 8 10 8 10z"/></symbol><symbol id="shopping-bag" viewBox="0 0 24 24"><path d="M6 2L3 6v14a2 2 0 002 2h14a2 2 0 002-2V6l-3-4z"/><path d="M3 6h18"/><path d="M16 10a4 4 0 01-8 0"/></symbol><symbol id="shopping-cart" viewBox="0 0 24 24"><circle cx="9" cy="21" r="1"/><circle cx="20" cy="21" r="1"/><path d="M1 1h4l2.68 13.39a2 2 0 002 1.61h9.72a2 2 0 002-1.61L23 6H6"/></symbol><symbol id="shuffle" viewBox="0 0 24 24"><path d="M16 3h5v5"/><path d="M4 20L21 3"/><path d="M21 16v5h-5"/><path d="M15 15l6 6"/><path d="M4 4l5 5"/></symbol><symbol id="sidebar" viewBox="0 0 24 24"><rect x="3" y="3" width="18" height="18" rx="2" ry="2"/><path d="M9 3v18"/></symbol><symbol id="skip-back" viewBox="0 0 24 24"><path d="M19 20L9 12l10-8v16z"/><path d="M5 19V5"/></symbol><symbol id="skip-forward" viewBox="0 0 24 24"><path d="M5 4l10 8-10 8V4z"/><path d="M19 5v14"/></symbol><symbol id="slack" viewBox="0 0 24 24"><path d="M14.5 10c-.83 0-1.5-.67-1.5-1.5v-5c0-.83.67-1.5 1.5-1.5s1.5.67 1.5 1.5v5c0 .83-.67 1.5-1.5 1.5z"/><path d="M20.5 10H19V8.5c0-.83.67-1.5 1.5-1.5s1.5.67 1.5 1.5-.67 1.5-1.5 1.5z"/><path d="M9.5 14c.83 0 1.5.67 1.5 1.5v5c0 .83-.67 1.5-1.5 1.5S8 21.33 8 20.5v-5c0-.83.67-1.5 1.5-1.5z"/><path d="M3.5 14H5v1.5c0 .83-.67 1.5-1.5 1.5S2 16.33 2 15.5 2.67 14 3.5 14z"/><path d="M14 14.5c0-.83.67-1.5 1.5-1.5h5c.83 0 1.5.67 1.5 1.5s-.67 1.5-1.5 1.5h-5c-.83 0-1.5-.67-1.5-1.5z"/><path d="M15.5 19H14v1.5c0 .83.67 1.5 1.5 1.5s1.5-.67 1.5-1.5-.67-1.5-1.5-1.5z"/><path d="M10 9.5C10 8.67 9.33 8 8.5 8h-5C2.67 8 2 8.67 2 9.5S2.67 11 3.5 11h5c.83 0 1.5-.67 1.5-1.5z"/><path d="M8.5 5H10V3.5C10 2.67 9.33 2 8.5 2S7 2.67 7 3.5 7.67 5 8.5 5z"/></symbol><symbol id="slash" viewBox="0 0 24 24"><circle cx="12" cy="12" r="10"/><path d="M4.93 4.93l14.14 14.14"/></symbol><symbol id="sliders" viewBox="0 0 24 24"><path d="M4 21v-7"/><path d="M4 10V3"/><path d="M12 21v-9"/><path d="M12 8V3"/><path d="M20 21v-5"/><path d="M20 12V3"/><path d="M1 14h6"/><path d="M9 8h6"/><path d="M17 16h6"/></symbol><symbol id="smartphone" viewBox="0 0 24 24"><rect x="5" y="2" width="14" height="20" rx="2" ry="2"/><path d="M12 18h.01"/></symbol><symbol id="smile" viewBox="0 0 24 24"><circle cx="12" cy="12" r="10"/><path d="M8 14s1.5 2 4 2 4-2 4-2"/><path d="M9 9h.01"/><path d="M15 9h.01"/></symbol><symbol id="speaker" viewBox="0 0 24 24"><rect x="4" y="2" width="16" height="20" rx="2" ry="2"/><circle cx="12" cy="14" r="4"/><path d="M12 6h.01"/></symbol><symbol id="square" viewBox="0 0 24 24"><rect x="3" y="3" width="18" height="18" rx="2" ry="2"/></symbol><symbol id="star" viewBox="0 0 24 24"><path d="M12 2l3.09 6.26L22 9.27l-5 4.87 1.18 6.88L12 17.77l-6.18 3.25L7 14.14 2 9.27l6.91-1.01L12 2z"/></symbol><symbol id="stop-circle" viewBox="0 0 24 24"><circle cx="12" cy="12" r="10"/><path d="M9 9h6v6H9z"/></symbol><symbol id="sun" viewBox="0 0 24 24"><circle cx="12" cy="12" r="5"/><path d="M12 1v2"/><path d="M12 21v2"/><path d="M4.22 4.22l1.42 1.42"/><path d="M18.36 18.36l1.42 1.42"/><path d="M1 12h2"/><path d="M21 12h2"/><path d="M4.22 19.78l1.42-1.42"/><path d="M18.36 5.64l1.42-1.42"/></symbol><symbol id="sunrise" viewBox="0 0 24 24"><path d="M17 18a5 5 0 00-10 0"/><path d="M12 2v7"/><path d="M4.22 10.22l1.42 1.42"/><path d="M1 18h2"/><path d="M21 18h2"/><path d="M18.36 11.64l1.42-1.42"/><path d="M23 22H1"/><path d="M8 6l4-4 4 4"/></symbol><symbol id="sunset" viewBox="0 0 24 24"><path d="M17 18a5 5 0 00-10 0"/><path d="M12 9V2"/><path d="M4.22 10.22l1.42 1.42"/><path d="M1 18h2"/><path d="M21 18h2"/><path d="M18.36 11.64l1.42-1.42"/><path d="M23 22H1"/><path d="M16 5l-4 4-4-4"/></symbol><symbol id="tablet" viewBox="0 0 24 24"><rect x="4" y="2" width="16" height="20" rx="2" ry="2"/><path d="M12 18h.01"/></symbol><symbol id="tag" viewBox="0 0 24 24"><path d="M20.59 13.41l-7.17 7.17a2 2 0 01-2.83 0L2 12V2h10l8.59 8.59a2 2 0 010 2.82z"/><path d="M7 7h.01"/></symbol><symbol id="target" viewBox="0 0 24 24"><circle cx="12" cy="12" r="10"/><circle cx="12" cy="12" r="6"/><circle cx="12" cy="12" r="2"/></symbol><symbol id="terminal" viewBox="0 0 24 24"><path d="M4 17l6-6-6-6"/><path d="M12 19h8"/></symbol><symbol id="thermometer" viewBox="0 0 24 24"><path d="M14 14.76V3.5a2.5 2.5 0 00-5 0v11.26a4.5 4.5 0 105 0z"/></symbol><symbol id="thumbs-down" viewBox="0 0 24 24"><path d="M10 15v4a3 3 0 003 3l4-9V2H5.72a2 2 0 00-2 1.7l-1.38 9a2 2 0 002 2.3zm7-13h2.67A2.31 2.31 0 0122 4v7a2.31 2.31 0 01-2.33 2H17"/></symbol><symbol id="thumbs-up" viewBox="0 0 24 24"><path d="M14 9V5a3 3 0 00-3-3l-4 9v11h11.28a2 2 0 002-1.7l1.38-9a2 2 0 00-2-2.3zM7 22H4a2 2 0 01-2-2v-7a2 2 0 012-2h3"/></symbol><symbol id="toggle-left" viewBox="0 0 24 24"><rect x="1" y="5" width="22" height="14" rx="7" ry="7"/><circle cx="8" cy="12" r="3"/></symbol><symbol id="toggle-right" viewBox="0 0 24 24"><rect x="1" y="5" width="22" height="14" rx="7" ry="7"/><circle cx="16" cy="12" r="3"/></symbol><symbol id="tool" viewBox="0 0 24 24"><path d="M14.7 6.3a1 1 0 000 1.4l1.6 1.6a1 1 0 001.4 0l3.77-3.77a6 6 0 01-7.94 7.94l-6.91 6.91a2.12 2.12 0 01-3-3l6.91-6.91a6 6 0 017.94-7.94l-3.76 3.76z"/></symbol><symbol id="trash-2" viewBox="0 0 24 24"><path d="M3 6h18"/><path d="M19 6v14a2 2 0 01-2 2H7a2 2 0 01-2-2V6m3 0V4a2 2 0 012-2h4a2 2 0 012 2v2"/><path d="M10 11v6"/><path d="M14 11v6"/></symbol><symbol id="trash" viewBox="0 0 24 24"><path d="M3 6h18"/><path d="M19 6v14a2 2 0 01-2 2H7a2 2 0 01-2-2V6m3 0V4a2 2 0 012-2h4a2 2 0 012 2v2"/></symbol><symbol id="trello" viewBox="0 0 24 24"><rect x="3" y="3" width="18" height="18" rx="2" ry="2"/><path d="M7 7h3v9H7z"/><path d="M14 7h3v5h-3z"/></symbol><symbol id="trending-down" viewBox="0 0 24 24"><path d="M23 18l-9.5-9.5-5 5L1 6"/><path d="M17 18h6v-6"/></symbol><symbol id="trending-up" viewBox="0 0 24 24"><path d="M23 6l-9.5 9.5-5-5L1 18"/><path d="M17 6h6v6"/></symbol><symbol id="triangle" viewBox="0 0 24 24"><path d="M10.29 3.86L1.82 18a2 2 0 001.71 3h16.94a2 2 0 001.71-3L13.71 3.86a2 2 0 00-3.42 0z"/></symbol><symbol id="truck" viewBox="0 0 24 24"><path d="M1 3h15v13H1z"/><path d="M16 8h4l3 3v5h-7V8z"/><circle cx="5.5" cy="18.5" r="2.5"/><circle cx="18.5" cy="18.5" r="2.5"/></symbol><symbol id="tv" viewBox="0 0 24 24"><rect x="2" y="7" width="20" height="15" rx="2" ry="2"/><path d="M17 2l-5 5-5-5"/></symbol><symbol id="twitch" viewBox="0 0 24 24"><path d="M21 2H3v16h5v4l4-4h5l4-4V2zm-10 9V7m5 4V7"/></symbol><symbol id="twitter" viewBox="0 0 24 24"><path d="M23 3a10.9 10.9 0 01-3.14 1.53 4.48 4.48 0 00-7.86 3v1A10.66 10.66 0 013 4s-4 9 5 13a11.64 11.64 0 01-7 2c9 5 20 0 20-11.5a4.5 4.5 0 00-.08-.83A7.72 7.72 0 0023 3z"/></symbol><symbol id="type" viewBox="0 0 24 24"><path d="M4 7V4h16v3"/><path d="M9 20h6"/><path d="M12 4v16"/></symbol><symbol id="umbrella" viewBox="0 0 24 24"><path d="M23 12a11.05 11.05 0 00-22 0zm-5 7a3 3 0 01-6 0v-7"/></symbol><symbol id="underline" viewBox="0 0 24 24"><path d="M6 3v7a6 6 0 006 6 6 6 0 006-6V3"/><path d="M4 21h16"/></symbol><symbol id="unlock" viewBox="0 0 24 24"><rect x="3" y="11" width="18" height="11" rx="2" ry="2"/><path d="M7 11V7a5 5 0 019.9-1"/></symbol><symbol id="upload-cloud" viewBox="0 0 24 24"><path d="M16 16l-4-4-4 4"/><path d="M12 12v9"/><path d="M20.39 18.39A5 5 0 0018 9h-1.26A8 8 0 103 16.3"/><path d="M16 16l-4-4-4 4"/></symbol><symbol id="upload" viewBox="0 0 24 24"><path d="M21 15v4a2 2 0 01-2 2H5a2 2 0 01-2-2v-4"/><path d="M17 8l-5-5-5 5"/><path d="M12 3v12"/></symbol><symbol id="user-check" viewBox="0 0 24 24"><path d="M16 21v-2a4 4 0 00-4-4H5a4 4 0 00-4 4v2"/><circle cx="8.5" cy="7" r="4"/><path d="M17 11l2 2 4-4"/></symbol><symbol id="user-minus" viewBox="0 0 24 24"><path d="M16 21v-2a4 4 0 00-4-4H5a4 4 0 00-4 4v2"/><circle cx="8.5" cy="7" r="4"/><path d="M23 11h-6"/></symbol><symbol id="user-plus" viewBox="0 0 24 24"><path d="M16 21v-2a4 4 0 00-4-4H5a4 4 0 00-4 4v2"/><circle cx="8.5" cy="7" r="4"/><path d="M20 8v6"/><path d="M23 11h-6"/></symbol><symbol id="user-x" viewBox="0 0 24 24"><path d="M16 21v-2a4 4 0 00-4-4H5a4 4 0 00-4 4v2"/><circle cx="8.5" cy="7" r="4"/><path d="M18 8l5 5"/><path d="M23 8l-5 5"/></symbol><symbol id="user" viewBox="0 0 24 24"><path d="M20 21v-2a4 4 0 00-4-4H8a4 4 0 00-4 4v2"/><circle cx="12" cy="7" r="4"/></symbol><symbol id="users" viewBox="0 0 24 24"><path d="M17 21v-2a4 4 0 00-4-4H5a4 4 0 00-4 4v2"/><circle cx="9" cy="7" r="4"/><path d="M23 21v-2a4 4 0 00-3-3.87"/><path d="M16 3.13a4 4 0 010 7.75"/></symbol><symbol id="video-off" viewBox="0 0 24 24"><path d="M16 16v1a2 2 0 01-2 2H3a2 2 0 01-2-2V7a2 2 0 012-2h2m5.66 0H14a2 2 0 012 2v3.34l1 1L23 7v10"/><path d="M1 1l22 22"/></symbol><symbol id="video" viewBox="0 0 24 24"><path d="M23 7l-7 5 7 5V7z"/><rect x="1" y="5" width="15" height="14" rx="2" ry="2"/></symbol><symbol id="voicemail" viewBox="0 0 24 24"><circle cx="5.5" cy="11.5" r="4.5"/><circle cx="18.5" cy="11.5" r="4.5"/><path d="M5.5 16h13"/></symbol><symbol id="volume-1" viewBox="0 0 24 24"><path d="M11 5L6 9H2v6h4l5 4V5z"/><path d="M15.54 8.46a5 5 0 010 7.07"/></symbol><symbol id="volume-2" viewBox="0 0 24 24"><path d="M11 5L6 9H2v6h4l5 4V5z"/><path d="M19.07 4.93a10 10 0 010 14.14M15.54 8.46a5 5 0 010 7.07"/></symbol><symbol id="volume-x" viewBox="0 0 24 24"><path d="M11 5L6 9H2v6h4l5 4V5z"/><path d="M23 9l-6 6"/><path d="M17 9l6 6"/></symbol><symbol id="volume" viewBox="0 0 24 24"><path d="M11 5L6 9H2v6h4l5 4V5z"/></symbol><symbol id="watch" viewBox="0 0 24 24"><circle cx="12" cy="12" r="7"/><path d="M12 9v3l1.5 1.5"/><path d="M16.51 17.35l-.35 3.83a2 2 0 01-2 1.82H9.83a2 2 0 01-2-1.82l-.35-3.83m.01-10.7l.35-3.83A2 2 0 019.83 1h4.35a2 2 0 012 1.82l.35 3.83"/></symbol><symbol id="wifi-off" viewBox="0 0 24 24"><path d="M1 1l22 22"/><path d="M16.72 11.06A10.94 10.94 0 0119 12.55"/><path d="M5 12.55a10.94 10.94 0 015.17-2.39"/><path d="M10.71 5.05A16 16 0 0122.58 9"/><path d="M1.42 9a15.91 15.91 0 014.7-2.88"/><path d="M8.53 16.11a6 6 0 016.95 0"/><path d="M12 20h.01"/></symbol><symbol id="wifi" viewBox="0 0 24 24"><path d="M5 12.55a11 11 0 0114.08 0"/><path d="M1.42 9a16 16 0 0121.16 0"/><path d="M8.53 16.11a6 6 0 016.95 0"/><path d="M12 20h.01"/></symbol><symbol id="wind" viewBox="0 0 24 24"><path d="M9.59 4.59A2 2 0 1111 8H2m10.59 11.41A2 2 0 1014 16H2m15.73-8.27A2.5 2.5 0 1119.5 12H2"/></symbol><symbol id="x-circle" viewBox="0 0 24 24"><circle cx="12" cy="12" r="10"/><path d="M15 9l-6 6"/><path d="M9 9l6 6"/></symbol><symbol id="x-octagon" viewBox="0 0 24 24"><path d="M7.86 2h8.28L22 7.86v8.28L16.14 22H7.86L2 16.14V7.86L7.86 2z"/><path d="M15 9l-6 6"/><path d="M9 9l6 6"/></symbol><symbol id="x-square" viewBox="0 0 24 24"><rect x="3" y="3" width="18" height="18" rx="2" ry="2"/><path d="M9 9l6 6"/><path d="M15 9l-6 6"/></symbol><symbol id="x" viewBox="0 0 24 24"><path d="M18 6L6 18"/><path d="M6 6l12 12"/></symbol><symbol id="youtube" viewBox="0 0 24 24"><path d="M22.54 6.42a2.78 2.78 0 00-1.94-2C18.88 4 12 4 12 4s-6.88 0-8.6.46a2.78 2.78 0 00-1.94 2A29 29 0 001 11.75a29 29 0 00.46 5.33A2.78 2.78 0 003.4 19c1.72.46 8.6.46 8.6.46s6.88 0 8.6-.46a2.78 2.78 0 001.94-2 29 29 0 00.46-5.25 29 29 0 00-.46-5.33z"/><path d="M9.75 15.02l5.75-3.27-5.75-3.27v6.54z"/></symbol><symbol id="zap-off" viewBox="0 0 24 24"><path d="M12.41 6.75L13 2l-2.43 2.92"/><path d="M18.57 12.91L21 10h-5.34"/><path d="M8 8l-5 6h9l-1 8 5-6"/><path d="M1 1l22 22"/></symbol><symbol id="zap" viewBox="0 0 24 24"><path d="M13 2L3 14h9l-1 8 10-12h-9l1-8z"/></symbol><symbol id="zoom-in" viewBox="0 0 24 24"><circle cx="11" cy="11" r="8"/><path d="M21 21l-4.35-4.35"/><path d="M11 8v6"/><path d="M8 11h6"/></symbol><symbol id="zoom-out" viewBox="0 0 24 24"><circle cx="11" cy="11" r="8"/><path d="M21 21l-4.35-4.35"/><path d="M8 11h6"/></symbol></defs></svg>