<svg xmlns="http://www.w3.org/2000/svg" id="Layer_1" data-name="Layer 1" viewBox="0 0 80 80"><defs><style>.cls-1{fill:#fff}.cls-2{fill:#717172}</style></defs><circle cx="40" cy="37.82" r="36.59" class="cls-1"/><path d="M62.24 54.91H17.76A1.91 1.91 0 0115.88 53V20.46a1.92 1.92 0 011.88-2h44.48a1.92 1.92 0 011.88 2V53a1.91 1.91 0 01-1.88 1.91zM17.76 19.28a1.16 1.16 0 00-1.13 1.18V53a1.15 1.15 0 001.13 1.17h44.48A1.15 1.15 0 0063.37 53V20.46a1.16 1.16 0 00-1.13-1.18z" class="cls-2"/><path d="M62.24 55.06H17.76a2.07 2.07 0 01-2-2.1v-32.5a2.07 2.07 0 012-2.1h44.48a2.07 2.07 0 012 2.1V53a2.07 2.07 0 01-2 2.06zM17.76 18.65A1.78 1.78 0 0016 20.46V53a1.78 1.78 0 001.74 1.81h44.5A1.78 1.78 0 0064 53V20.46a1.78 1.78 0 00-1.74-1.81zm44.48 35.63H17.76A1.3 1.3 0 0116.49 53V20.46a1.3 1.3 0 011.27-1.32h44.48a1.3 1.3 0 011.27 1.32V53a1.3 1.3 0 01-1.27 1.28zM17.76 19.43a1 1 0 00-1 1V53a1 1 0 001 1h44.48a1 1 0 001-1V20.46a1 1 0 00-1-1z" class="cls-2"/><path d="M16.25 22.94h47.49v.75H16.25z" class="cls-2"/><path d="M63.89 23.84H16.11v-1h47.78zm-47.49-.29h47.2v-.47H16.4zm3.33-2.38a.79.79 0 11-.79-.79.79.79 0 01.79.79zm2.36 0a.79.79 0 01-1.58 0 .79.79 0 011.58 0zm2.37 0a.79.79 0 11-.79-.79.79.79 0 01.79.79zm2.81 14.47h3.88v3.88h-3.88zm7.19 0h3.88v3.88h-3.88zm7.2 0h3.88v3.88h-3.88zm7.19 0h3.88v3.88h-3.88z" class="cls-2"/><path d="M40 .69a37.13 37.13 0 1037.12 37.13A37.17 37.17 0 0040 .69zm35.82 37.13A35.82 35.82 0 1140 2a35.86 35.86 0 0135.82 35.82z" class="cls-2"/><circle cx="20.33" cy="62.09" r="16.94" class="cls-1"/><path d="M20.35 79.31A17.54 17.54 0 016.13 72a17.45 17.45 0 0117-27.42 17.47 17.47 0 01-2.82 34.7zm-.06-33.88A16.42 16.42 0 007 71.41a16.48 16.48 0 0013.36 6.84A16.41 16.41 0 0023 45.65a17.46 17.46 0 00-2.71-.22z" class="cls-2"/><path fill="#d71920" d="M27.6 54.82a5.78 5.78 0 00-9.6 5.86l-6.5 6.5a.54.54 0 00-.15.38v3a.52.52 0 00.52.52h3a.51.51 0 00.37-.15l.74-.75a.49.49 0 00.15-.43l-.09-.8 1.11-.1a.51.51 0 00.47-.47l.1-1.11.8.09a.5.5 0 00.41-.12.55.55 0 00.18-.4v-1h1a.52.52 0 00.37-.16l1.35-1.33A5.68 5.68 0 0027.6 63a5.79 5.79 0 000-8.18zm-1.49 3.71a1.57 1.57 0 110-2.22 1.57 1.57 0 010 2.22z"/></svg>