<svg xmlns="http://www.w3.org/2000/svg" viewBox="0 0 128 128"><path fill="#0b9dcc" d="M16 59.77V22a6 6 0 0 1 6-6h84a6 6 0 0 1 6 6v37.77l-4 2V22a2 2 0 0 0-2-2H22a2 2 0 0 0-2 2v39.77Zm66.29-17.06c0 7.84-5.76 12.84-9.72 12.84-1.32 0-3.53 0-5-1.77a3.45 3.45 0 0 1-.35-.5 8.33 8.33 0 0 1-5.42 2.27 6 6 0 0 1-1.46-.18 6.06 6.06 0 0 1-4-3.2 10.85 10.85 0 0 1-.07-8.8c2-5.15 6.21-7.17 9.52-6.89a6.41 6.41 0 0 1 2.89.92 2 2 0 0 1 3.56 1.65s-.58 2.34-1.69 8.45c-.51 2.82 0 3.59.09 3.72.28.33 1.32.33 1.94.33 1.66 0 5.72-3.1 5.72-8.84 0-11.47-8.4-12.71-12-12.71-8.83 0-16.58 8.28-16.58 17.71C49.71 59 58.51 62 63.16 62a15.48 15.48 0 0 0 7.07-2.08 2 2 0 0 1 2.75.66 2 2 0 0 1-.64 2.74A19.36 19.36 0 0 1 63.16 66c-7 0-17.45-4.87-17.45-18.29C45.71 35.94 55.13 26 66.29 26c2.71 0 16 .81 16 16.71Zm-14.92 0c0-1.75-.73-2.17-1.92-2.27-1.82-.17-4.21 1.14-5.46 4.36a7 7 0 0 0-.12 5.49 2.1 2.1 0 0 0 1.39 1.17c1.52.37 3.83-1 5.2-3.78 0-.3.09-.6.14-.91.29-1.58.55-2.92.77-4.04Z"/><path fill="#001b41" d="M126 54.67s-11.2-10.51-14-13.13V47l8.85 8.32-45.93 23-4.73-4.15a9.69 9.69 0 0 0-12.36 0l-4.74 4.15c-.06 0-45.94-23-45.94-23L16 47v-5.46C13.2 44.17 2.05 54.65 2 54.67A7.94 7.94 0 0 0 0 60v60a8 8 0 0 0 8 8h112a8 8 0 0 0 8-8V60a7.94 7.94 0 0 0-2-5.33ZM4 120V60a4.08 4.08 0 0 1 .34-1.59l45.52 22.76-45.67 40A4.09 4.09 0 0 1 4 120Zm116 4H8a4 4 0 0 1-.85-.1l53.31-46.7a5.63 5.63 0 0 1 7.09 0l53.3 46.71a4 4 0 0 1-.85.09Zm4-4a4.09 4.09 0 0 1-.19 1.17l-45.66-40 45.51-22.75A4.08 4.08 0 0 1 124 60ZM49 16h-5.81L57.78 2.29a9.69 9.69 0 0 1 12.41 0L84.83 16H79L67.5 5.2a5.63 5.63 0 0 0-7 .06Z"/></svg>
