<svg xmlns="http://www.w3.org/2000/svg" viewBox="0 0 145 132"><defs/><path fill="#f8e8e0" d="M25.9 42.5h77V98h-77V42.5z"/><path fill="#212d49" d="M143.1 0H2.1C.9 0 0 1 0 2.1v127.4c0 1.2 1 2.1 2.1 2.1h141.1c1.2 0 2.1-1 2.1-2.1V2.1c0-1.2-1-2.1-2.2-2.1zM4.2 127.4v-105h14.3c1.2 0 2.1-1 2.1-2.1 0-1.2-1-2.1-2.1-2.1H4.2v-14H141v13.9H28.3c-1.2 0-2.1 1-2.1 2.1 0 1.2 1 2.1 2.1 2.1H141v105H4.2v.1z" class="st2"/><path fill="#212d49" d="M79.4 100.1H65.7c-4.9 0-9 4-9 9 0 4.9 4 9 9 9h13.7c4.9 0 9-4 9-9s-4-9-9-9zm0 13.6H65.7c-2.6 0-4.7-2.1-4.7-4.7s2.1-4.7 4.7-4.7h13.7c2.6 0 4.7 2.1 4.7 4.7s-2.1 4.7-4.7 4.7zm45.3-100.4h.3c1.2 0 2.1-1 2.1-2.1s-1-2.1-2.1-2.1h-.3c-1.2 0-2.1 1-2.1 2.1s.9 2.1 2.1 2.1zm9.1 0h.3c1.2 0 2.1-1 2.1-2.1s-1-2.1-2.1-2.1h-.3c-1.2 0-2.1 1-2.1 2.1s.9 2.1 2.1 2.1zm-18.5 0h.3c1.2 0 2.1-1 2.1-2.1s-1-2.1-2.1-2.1h-.3c-1.2 0-2.1 1-2.1 2.1s.9 2.1 2.1 2.1z" class="st2"/><path fill="#212d49" d="M118.7 91.1l8.1-8.1c1.1-1.1.6-3.1-.9-3.6l-14.7-4V47.6c0-1.2-1-2.1-2.1-2.1H36.2c-1.2 0-2.1 1-2.1 2.1v45.5c0 1.2 1 2.1 2.1 2.1h57.9l3.4 12.5c.4 1.5 2.4 2.1 3.6.9l8.1-8.1 14.6 14.6c.8.8 2.2.8 3 0l6.4-6.4c.8-.8.8-2.2 0-3l-14.5-14.6zM38.3 91V49.7h68.6v24.4l-16.4-4.5c-1.6-.4-3 1.1-2.6 2.6L93 90.9H38.3v.1zm87 19.6L110.7 96c-.8-.8-2.2-.8-3 0l-7.1 7.1-7.7-28.3 28.3 7.7-7.1 7.1c-.8.8-.8 2.2 0 3l14.6 14.6-3.4 3.4z" class="st2"/><path fill="#fff" d="M125.3 110.6L110.7 96c-.8-.8-2.2-.8-3 0l-7.1 7.1-7.7-28.3 28.3 7.7-7.1 7.1c-.8.8-.8 2.2 0 3l14.6 14.6-3.4 3.4z" class="st0"/></svg>