<?xml version="1.0" encoding="utf-8"?>
<!-- Generator: Adobe Illustrator 22.1.0, SVG Export Plug-In . SVG Version: 6.00 Build 0)  -->
<svg version="1.1" id="Layer_1" xmlns="http://www.w3.org/2000/svg" xmlns:xlink="http://www.w3.org/1999/xlink" x="0px" y="0px"
	 viewBox="0 0 2481.9 2481.9" style="enable-background:new 0 0 2481.9 2481.9;" xml:space="preserve">
<style type="text/css">
	.st0{fill:#616161;}
	.st1{fill:#9E9E9E;}
	.st2{fill:#424242;}
	.st3{fill:#212121;fill-opacity:0.1;}
	.st4{fill:#FFFFFF;fill-opacity:5.000000e-02;}
	.st5{opacity:0.5;fill:#BDBDBD;enable-background:new    ;}
	.st6{fill:#BDBDBD;}
	.st7{fill:#757575;}
	.st8{fill:#FFFFFF;fill-opacity:0.2;}
	.st9{fill:#212121;fill-opacity:0.2;}
	.st10{fill:url(#SVGID_1_);}
</style>
<g transform="translate(-27 -27)">
	<circle class="st0" cx="1268" cy="1268" r="1241"/>
	<path class="st1" d="M1268,2057.7c-436.2,0-789.7-353.5-789.7-789.7c0-436.2,353.5-789.7,789.7-789.7c218,0,415.4,88.4,558.4,231.3
		l319.1-319.1C1920.9,165.9,1610.6,27,1268,27C582.6,27,27,582.6,27,1268s555.6,1241,1241,1241c342.7,0,652.9-138.9,877.6-363.4
		l-319.1-319.1C1683.4,1969.3,1486,2057.7,1268,2057.7z"/>
	<path class="st2" d="M2057.7,1268h-394.9c0-218-176.8-394.9-394.9-394.9S873.1,1049.9,873.1,1268c0,106.2,42,202.5,110.3,273.6
		l-0.3,0.3l488.9,488.9l0.1,0.1C1809.3,1940.9,2057.7,1633.5,2057.7,1268L2057.7,1268z"/>
	<path class="st0" d="M2508.9,1268h-451.3c0,365.5-248.5,672.9-585.5,762.9l348.5,348.5C2228.6,2176.1,2508.9,1754.8,2508.9,1268z"
		/>
	<path class="st3" d="M1268,2494.8C585,2494.8,31,1943,27.1,1260.9c0,2.4-0.1,4.7-0.1,7.1c0,685.4,555.6,1241,1241,1241
		s1241-555.6,1241-1241c0-2.4-0.1-4.7-0.1-7.1C2505,1943,1950.9,2494.8,1268,2494.8L1268,2494.8z"/>
	<path class="st4" d="M1472.2,2030.9l11,11c331.4-93.6,574.5-398.2,574.5-759.8V1268C2057.7,1633.5,1809.2,1940.9,1472.2,2030.9
		L1472.2,2030.9z"/>
	<g transform="translate(236.455 236.455)">
		<path class="st1" d="M2046.9,918.7H1031.5c-62.3,0-112.8,50.5-112.8,112.8c0,62.3,50.5,112.8,112.8,112.8h1015.3
			c62.3,0,112.8-50.5,112.8-112.8C2159.7,969.2,2109.2,918.7,2046.9,918.7z"/>
		<path class="st5" d="M2046.9,918.7H1031.5c-62.3,0-112.8,50.5-112.8,112.8c0,62.3,50.5,112.8,112.8,112.8h1015.3
			c62.3,0,112.8-50.5,112.8-112.8C2159.7,969.2,2109.2,918.7,2046.9,918.7z"/>
	</g>
	<g>
		<g>
			<circle class="st6" cx="252.6" cy="1268" r="84.6"/>
			<circle class="st6" cx="1268" cy="252.6" r="84.6"/>
			<circle class="st6" cx="1268" cy="2283.3" r="84.6"/>
			<circle class="st6" cx="548.8" cy="550" r="84.6"/>
			<circle class="st6" cx="548.8" cy="1987.2" r="84.6"/>
		</g>
		<circle class="st7" cx="1987.2" cy="1987.2" r="84.6"/>
		<path class="st8" d="M1268,1169.3h1015.3c59.9,0,108.9,46.8,112.4,105.8c0.1-2.4,0.4-4.7,0.4-7.1c0-62.3-50.5-112.8-112.8-112.8
			H1268c-62.3,0-112.8,50.5-112.8,112.8c0,2.4,0.1,4.7,0.4,7.1C1159.1,1216.1,1208,1169.3,1268,1169.3z"/>
		<path class="st9" d="M2395.7,1275c-3.7,58.9-52.6,105.8-112.4,105.8H1268c-59.9,0-108.9-46.8-112.4-105.8c-0.3,2.4-0.4,4.7-0.4,7
			c0,62.3,50.5,112.8,112.8,112.8h1015.3c62.3,0,112.8-50.5,112.8-112.8C2396.1,1279.7,2396,1277.4,2395.7,1275z"/>
		<path class="st3" d="M1268,492.4c218,0,415.4,88.4,558.4,231.3l326-326.2c-2.4-2.4-4.7-4.8-7-7.1l-319,319.1
			c-143-142.9-340.4-231.3-558.4-231.3c-436.2,0-789.7,353.5-789.7,789.7c0,2.4,0.1,4.7,0.1,7.1C482.2,842.1,834.2,492.4,1268,492.4
			L1268,492.4z"/>
		
			<radialGradient id="SVGID_1_" cx="706.7253" cy="1774.0293" r="0.9983" gradientTransform="matrix(2481.9333 0 0 -2481.9333 -1753654.125 4403410.5)" gradientUnits="userSpaceOnUse">
			<stop  offset="0" style="stop-color:#FFFFFF;stop-opacity:0.1"/>
			<stop  offset="1" style="stop-color:#FFFFFF;stop-opacity:0"/>
		</radialGradient>
		<circle class="st10" cx="1268" cy="1268" r="1241"/>
	</g>
</g>
</svg>
